<svg width="17" height="14" viewBox="0 0 17 14" fill="none" xmlns="http://www.w3.org/2000/svg">
<rect width="17" height="14" fill="#F5F5F5"/>
<g clip-path="url(#clip0_0_1)">
<mask id="mask0_0_1" style="mask-type:luminance" maskUnits="userSpaceOnUse" x="-456" y="-4547" width="1366" height="5255">
<path d="M910 -4547H-456V708H910V-4547Z" fill="white"/>
</mask>
<g mask="url(#mask0_0_1)">
<path d="M910 -4547H-456V708H910V-4547Z" fill="white"/>
<path d="M748 -305H-262C-293.48 -305 -319 -279.48 -319 -248V38C-319 69.4802 -293.48 95 -262 95H748C779.48 95 805 69.4802 805 38V-248C805 -279.48 779.48 -305 748 -305Z" fill="#0086D5"/>
<path d="M283 -16.5H-9C-10.933 -16.5 -12.5 -14.933 -12.5 -13V28C-12.5 29.933 -10.933 31.5 -9 31.5H283C284.933 31.5 286.5 29.933 286.5 28V-13C286.5 -14.933 284.933 -16.5 283 -16.5Z" stroke="white"/>
<path d="M14.632 0.722168H1.626C1.19598 0.723756 0.784149 0.895831 0.480829 1.20065C0.177509 1.50547 0.00746738 1.91815 0.0079999 2.34817L0 12.1032C0.00131876 12.534 0.173052 12.9468 0.477701 13.2515C0.78235 13.5561 1.19516 13.7278 1.626 13.7292H14.632C15.0628 13.7278 15.4756 13.5561 15.7803 13.2515C16.0849 12.9468 16.2567 12.534 16.258 12.1032V2.34817C16.2567 1.91733 16.0849 1.50452 15.7803 1.19987C15.4756 0.89522 15.0628 0.723487 14.632 0.722168ZM14.632 3.97417L8.132 8.03917L1.632 3.97417V2.34817L8.132 6.41317L14.632 2.34817V3.97417Z" fill="white"/>
<mask id="mask1_0_1" style="mask-type:luminance" maskUnits="userSpaceOnUse" x="-171" y="-267" width="308" height="299">
<path d="M99.9954 -266.959L-170.627 -228.926L-133.995 31.7227L136.627 -6.31084L99.9954 -266.959Z" fill="white"/>
</mask>
<g mask="url(#mask1_0_1)">
<path d="M-22.8351 16.09C-26.0554 16.0902 -29.4533 15.9911 -32.9338 15.7926C-33.1084 15.7827 -33.2794 15.7386 -33.437 15.6626C-33.5946 15.5867 -33.7356 15.4804 -33.8521 15.3499C-33.9687 15.2195 -34.0583 15.0673 -34.1161 14.9022C-34.1738 14.7371 -34.1984 14.5622 -34.1885 14.3875C-34.1787 14.2129 -34.1345 14.0419 -34.0585 13.8843C-33.9826 13.7268 -33.8763 13.5857 -33.7459 13.4692C-33.6154 13.3527 -33.4633 13.263 -33.2981 13.2053C-33.133 13.1476 -32.9581 13.1229 -32.7835 13.1328C-29.3532 13.3263 -26.0061 13.4234 -22.8353 13.4231C-22.4982 13.4232 -22.1738 13.551 -21.9273 13.7808C-21.6807 14.0106 -21.5305 14.3253 -21.5068 14.6615C-21.4831 14.9977 -21.5878 15.3304 -21.7996 15.5925C-22.0115 15.8546 -22.3148 16.0266 -22.6485 16.0739C-22.7105 16.0825 -22.773 16.0869 -22.8355 16.0871M-42.9799 14.9708C-46.3294 14.6124 -49.6903 14.1658 -52.9691 13.642C-53.1418 13.6145 -53.3074 13.5531 -53.4565 13.4615C-53.6056 13.3699 -53.7351 13.2499 -53.8378 13.1083C-53.9404 12.9666 -54.0142 12.8061 -54.0548 12.636C-54.0955 12.4658 -54.1022 12.2893 -54.0746 12.1166C-54.0471 11.9438 -53.9857 11.7782 -53.8941 11.6291C-53.8026 11.4801 -53.6825 11.3505 -53.5409 11.2478C-53.3992 11.1452 -53.2387 11.0714 -53.0686 11.0308C-52.8984 10.9902 -52.7219 10.9834 -52.5491 11.011C-49.3159 11.527 -46.0002 11.9679 -42.6957 12.3224C-42.3726 12.3568 -42.0731 12.5082 -41.8538 12.748C-41.6345 12.9879 -41.5104 13.2997 -41.5049 13.6246C-41.4995 13.9495 -41.613 14.2653 -41.8242 14.5124C-42.0353 14.7594 -42.3295 14.9208 -42.6514 14.966C-42.7603 14.9814 -42.8706 14.983 -42.9799 14.9708ZM-62.8779 11.785C-66.2003 11.0664 -69.4937 10.2518 -72.6673 9.36286C-72.8371 9.31686 -72.9961 9.23769 -73.1351 9.12992C-73.2741 9.02215 -73.3904 8.88792 -73.4772 8.73496C-73.5641 8.582 -73.6198 8.41337 -73.6411 8.23876C-73.6624 8.06416 -73.649 7.88708 -73.6015 7.71771C-73.554 7.54834 -73.4735 7.39005 -73.3645 7.25199C-73.2555 7.11393 -73.1203 6.9988 -72.9666 6.91328C-72.8129 6.82777 -72.6438 6.77352 -72.469 6.7537C-72.2942 6.73388 -72.1172 6.74889 -71.9483 6.79783C-68.8263 7.67184 -65.5861 8.47371 -62.315 9.18033C-62.1428 9.21607 -61.9794 9.28554 -61.8342 9.38475C-61.689 9.48396 -61.5649 9.61095 -61.469 9.75837C-61.3731 9.9058 -61.3074 10.0708 -61.2756 10.2437C-61.2438 10.4167 -61.2466 10.5942 -61.2837 10.7661C-61.3209 10.938 -61.3918 11.1008 -61.4922 11.2452C-61.5926 11.3895 -61.7206 11.5126 -61.8688 11.6072C-62.0171 11.7019 -62.1826 11.7662 -62.3558 11.7966C-62.529 11.8269 -62.7064 11.8236 -62.8779 11.785ZM-82.2878 6.32422C-85.5108 5.18468 -88.6703 3.93624 -91.6786 2.61405C-91.9959 2.46808 -92.2431 2.20333 -92.3671 1.87682C-92.4911 1.55031 -92.4819 1.18815 -92.3415 0.868363C-92.201 0.548571 -91.9406 0.296743 -91.6163 0.167109C-91.292 0.0374745 -90.9297 0.0403865 -90.6076 0.175251C-87.6605 1.47171 -84.5628 2.69652 -81.4016 3.81344C-81.2367 3.87176 -81.0849 3.96198 -80.9548 4.07897C-80.8247 4.19596 -80.7189 4.33742 -80.6435 4.49529C-80.5681 4.65316 -80.5246 4.82433 -80.5153 4.99902C-80.5061 5.17372 -80.5313 5.34854 -80.5896 5.51349C-80.6479 5.67843 -80.7382 5.83027 -80.8552 5.96034C-80.9722 6.0904 -81.1136 6.19616 -81.2715 6.27157C-81.4293 6.34697 -81.6005 6.39054 -81.7752 6.39979C-81.9499 6.40904 -82.1247 6.38379 -82.2897 6.32548M-100.749 -1.83192C-103.752 -3.46679 -106.663 -5.23085 -109.397 -7.07327C-109.687 -7.27205 -109.886 -7.57712 -109.952 -7.92211C-110.017 -8.26711 -109.944 -8.62407 -109.748 -8.91538C-109.552 -9.20669 -109.249 -9.40873 -108.904 -9.47754C-108.56 -9.54636 -108.202 -9.4764 -107.909 -9.28287C-105.243 -7.48642 -102.405 -5.76664 -99.4747 -4.17097C-99.3174 -4.08943 -99.1779 -3.9773 -99.0644 -3.84117C-98.9509 -3.70503 -98.8658 -3.54761 -98.8139 -3.37815C-98.762 -3.20868 -98.7445 -3.03057 -98.7624 -2.85424C-98.7802 -2.6779 -98.8331 -2.50691 -98.9178 -2.35127C-99.0026 -2.19562 -99.1176 -2.05846 -99.256 -1.94781C-99.3944 -1.83716 -99.5536 -1.75526 -99.7241 -1.70689C-99.8946 -1.65852 -100.073 -1.64468 -100.249 -1.66615C-100.425 -1.68762 -100.595 -1.74398 -100.749 -1.83192ZM-117.487 -13.1535C-120.077 -15.3222 -122.543 -17.6358 -124.871 -20.0833C-125.115 -20.3396 -125.246 -20.682 -125.237 -21.0352C-125.228 -21.3885 -125.079 -21.7236 -124.823 -21.9669C-124.566 -22.2102 -124.224 -22.3418 -123.871 -22.3326C-123.517 -22.3235 -123.182 -22.1743 -122.939 -21.9181C-120.68 -19.5439 -118.288 -17.2994 -115.776 -15.1956C-115.505 -14.9686 -115.335 -14.6434 -115.304 -14.2915C-115.273 -13.9395 -115.383 -13.5896 -115.61 -13.3188C-115.837 -13.0481 -116.163 -12.8785 -116.515 -12.8475C-116.867 -12.8165 -117.216 -12.9266 -117.487 -13.1535ZM-131.397 -27.8285C-133.413 -30.5391 -135.263 -33.3699 -136.936 -36.3052C-137.109 -36.6121 -137.154 -36.9755 -137.061 -37.3156C-136.967 -37.6557 -136.742 -37.9448 -136.436 -38.1193C-136.129 -38.2938 -135.766 -38.3396 -135.425 -38.2466C-135.085 -38.1536 -134.796 -37.9294 -134.62 -37.6232C-133.001 -34.7824 -131.211 -32.0424 -129.26 -29.4183C-129.151 -29.2784 -129.07 -29.118 -129.023 -28.9465C-128.977 -28.775 -128.965 -28.5958 -128.988 -28.4196C-129.012 -28.2434 -129.07 -28.0737 -129.16 -27.9205C-129.251 -27.7673 -129.371 -27.6337 -129.513 -27.5276C-129.656 -27.4215 -129.818 -27.345 -129.991 -27.3026C-130.164 -27.2602 -130.343 -27.2528 -130.519 -27.2809C-130.694 -27.3089 -130.862 -27.3718 -131.013 -27.4659C-131.164 -27.5599 -131.294 -27.6832 -131.397 -27.8285ZM-141.409 -45.384C-142.714 -48.4921 -143.846 -51.6708 -144.798 -54.905C-144.85 -55.0736 -144.868 -55.251 -144.852 -55.4268C-144.835 -55.6026 -144.783 -55.7733 -144.7 -55.929C-144.617 -56.0847 -144.503 -56.2222 -144.366 -56.3337C-144.229 -56.4451 -144.072 -56.5282 -143.902 -56.5781C-143.733 -56.628 -143.555 -56.6438 -143.38 -56.6244C-143.204 -56.6051 -143.034 -56.551 -142.88 -56.4654C-142.725 -56.3797 -142.589 -56.2643 -142.48 -56.1256C-142.371 -55.987 -142.29 -55.828 -142.243 -55.6579C-141.318 -52.5186 -140.22 -49.4331 -138.953 -46.4157C-138.883 -46.2541 -138.845 -46.0801 -138.842 -45.9037C-138.84 -45.7274 -138.872 -45.5523 -138.937 -45.3886C-139.003 -45.2248 -139.1 -45.0757 -139.224 -44.9499C-139.347 -44.8241 -139.495 -44.7241 -139.657 -44.6557C-139.82 -44.5872 -139.994 -44.5517 -140.171 -44.5513C-140.347 -44.5508 -140.522 -44.5853 -140.685 -44.6529C-140.847 -44.7205 -140.995 -44.8197 -141.12 -44.9449C-141.244 -45.07 -141.342 -45.2186 -141.408 -45.382M-147.268 -64.6905C-147.818 -67.2942 -148.276 -69.8887 -148.629 -72.401C-148.735 -73.1576 -148.833 -73.9174 -148.921 -74.6594C-148.945 -74.8345 -148.933 -75.0126 -148.887 -75.1832C-148.841 -75.3539 -148.762 -75.5137 -148.653 -75.6533C-148.545 -75.7929 -148.41 -75.9096 -148.256 -75.9965C-148.102 -76.0835 -147.933 -76.1389 -147.757 -76.1596C-147.582 -76.1803 -147.404 -76.1659 -147.234 -76.1172C-147.064 -76.0685 -146.905 -75.9864 -146.768 -75.8759C-146.63 -75.7653 -146.515 -75.6284 -146.431 -75.4731C-146.346 -75.3179 -146.294 -75.1474 -146.276 -74.9716C-146.19 -74.2494 -146.094 -73.5086 -145.991 -72.7708C-145.646 -70.3179 -145.198 -67.7836 -144.661 -65.2406C-144.588 -64.8951 -144.655 -64.5349 -144.848 -64.239C-145.041 -63.9431 -145.343 -63.7357 -145.688 -63.6623C-145.719 -63.658 -145.749 -63.6536 -145.78 -63.6493C-146.114 -63.6029 -146.453 -63.6848 -146.729 -63.8786C-147.005 -64.0724 -147.197 -64.3637 -147.267 -64.6936M-148.233 -83.4416C-148.408 -83.4403 -148.582 -83.4735 -148.744 -83.5394C-148.907 -83.6053 -149.055 -83.7026 -149.18 -83.8258C-149.304 -83.949 -149.404 -84.0956 -149.472 -84.2572C-149.54 -84.4188 -149.575 -84.5922 -149.576 -84.7676C-149.61 -88.1552 -149.421 -91.5414 -149.009 -94.9041C-148.966 -95.2547 -148.784 -95.5735 -148.505 -95.7904C-148.227 -96.0073 -147.873 -96.1046 -147.522 -96.0608C-147.172 -96.017 -146.853 -95.8357 -146.636 -95.5569C-146.419 -95.278 -146.322 -94.9244 -146.366 -94.5738C-146.762 -91.328 -146.943 -88.0596 -146.909 -84.7899C-146.906 -84.4654 -147.021 -84.1508 -147.234 -83.9053C-147.446 -83.6598 -147.74 -83.5002 -148.062 -83.4565C-148.12 -83.4483 -148.179 -83.4437 -148.238 -83.4429M-146.07 -103.226C-146.409 -103.325 -146.695 -103.555 -146.865 -103.865C-147.035 -104.174 -147.074 -104.539 -146.976 -104.878C-146.025 -108.158 -144.769 -111.34 -143.222 -114.384C-143.061 -114.699 -142.782 -114.936 -142.446 -115.045C-142.109 -115.154 -141.744 -115.124 -141.429 -114.963C-141.115 -114.802 -140.877 -114.523 -140.768 -114.187C-140.66 -113.851 -140.689 -113.485 -140.85 -113.17C-142.32 -110.276 -143.515 -107.25 -144.418 -104.132C-144.467 -103.964 -144.548 -103.807 -144.658 -103.671C-144.767 -103.534 -144.903 -103.421 -145.056 -103.336C-145.21 -103.252 -145.378 -103.199 -145.552 -103.18C-145.726 -103.161 -145.902 -103.177 -146.07 -103.226ZM-102.524 -110.794C-105.987 -110.542 -109.469 -110.812 -112.853 -111.597C-113.197 -111.676 -113.495 -111.889 -113.683 -112.189C-113.87 -112.488 -113.93 -112.85 -113.851 -113.194C-113.771 -113.538 -113.558 -113.837 -113.259 -114.024C-112.959 -114.211 -112.597 -114.272 -112.253 -114.192C-109.134 -113.468 -105.924 -113.218 -102.73 -113.45C-102.386 -113.475 -102.046 -113.366 -101.781 -113.145C-101.516 -112.925 -101.347 -112.61 -101.309 -112.267C-101.272 -111.924 -101.369 -111.58 -101.579 -111.307C-101.79 -111.035 -102.099 -110.854 -102.44 -110.804L-102.522 -110.792M-94.2424 -114.154C-94.3299 -114.305 -94.3867 -114.472 -94.4095 -114.646C-94.4323 -114.819 -94.4208 -114.995 -94.3755 -115.164C-94.3302 -115.333 -94.2521 -115.492 -94.1457 -115.63C-94.0392 -115.769 -93.9064 -115.886 -93.7549 -115.973C-91.6467 -117.189 -89.1595 -119.345 -89.2866 -122.729C-89.3 -123.082 -89.1725 -123.426 -88.9322 -123.685C-88.692 -123.944 -88.3586 -124.097 -88.0055 -124.11C-87.6523 -124.124 -87.3084 -123.996 -87.0493 -123.756C-86.7901 -123.516 -86.6371 -123.182 -86.6237 -122.829C-86.4863 -119.157 -88.5454 -115.902 -92.4227 -113.665C-92.7287 -113.489 -93.0922 -113.441 -93.4332 -113.533C-93.7743 -113.624 -94.066 -113.848 -94.2424 -114.154ZM-122.479 -115.402C-125.484 -117.157 -128.184 -119.39 -130.471 -122.013C-130.586 -122.145 -130.673 -122.298 -130.729 -122.464C-130.785 -122.63 -130.807 -122.805 -130.795 -122.98C-130.783 -123.154 -130.737 -123.324 -130.659 -123.481C-130.581 -123.638 -130.473 -123.777 -130.341 -123.892C-130.209 -124.007 -130.056 -124.095 -129.89 -124.151C-129.724 -124.206 -129.549 -124.229 -129.375 -124.217C-129.2 -124.205 -129.03 -124.158 -128.873 -124.08C-128.716 -124.003 -128.577 -123.895 -128.462 -123.763C-126.364 -121.357 -123.889 -119.309 -121.133 -117.7C-120.98 -117.612 -120.846 -117.495 -120.739 -117.356C-120.632 -117.216 -120.554 -117.057 -120.508 -116.887C-120.463 -116.717 -120.452 -116.539 -120.476 -116.365C-120.499 -116.191 -120.557 -116.023 -120.646 -115.871C-120.735 -115.719 -120.853 -115.587 -120.994 -115.481C-121.134 -115.375 -121.294 -115.298 -121.464 -115.254C-121.635 -115.21 -121.812 -115.201 -121.986 -115.226C-122.16 -115.251 -122.328 -115.312 -122.479 -115.402ZM-137.43 -121.097C-137.565 -121.207 -137.677 -121.344 -137.76 -121.498C-137.843 -121.652 -137.894 -121.821 -137.911 -121.996C-137.928 -122.17 -137.911 -122.345 -137.86 -122.513C-137.809 -122.68 -137.726 -122.836 -137.615 -122.971C-135.437 -125.63 -132.956 -128.025 -130.221 -130.107C-130.081 -130.212 -129.923 -130.29 -129.753 -130.334C-129.584 -130.378 -129.408 -130.389 -129.234 -130.365C-129.061 -130.342 -128.894 -130.284 -128.743 -130.196C-128.592 -130.107 -128.46 -129.99 -128.354 -129.851C-128.248 -129.711 -128.171 -129.553 -128.127 -129.383C-128.082 -129.214 -128.072 -129.038 -128.095 -128.865C-128.119 -128.691 -128.177 -128.524 -128.265 -128.373C-128.353 -128.222 -128.47 -128.09 -128.61 -127.984C-131.179 -126.029 -133.51 -123.78 -135.555 -121.281C-135.78 -121.008 -136.103 -120.836 -136.455 -120.801C-136.806 -120.767 -137.157 -120.872 -137.43 -121.097ZM-93.4099 -130.447C-95.7149 -132.551 -98.5241 -134.024 -101.565 -134.724C-101.908 -134.809 -102.203 -135.028 -102.385 -135.331C-102.567 -135.634 -102.621 -135.997 -102.535 -136.339C-102.449 -136.682 -102.231 -136.977 -101.928 -137.159C-101.625 -137.34 -101.262 -137.394 -100.919 -137.309C-97.4359 -136.5 -94.2206 -134.806 -91.5846 -132.39C-91.327 -132.148 -91.176 -131.814 -91.1648 -131.461C-91.1536 -131.108 -91.2831 -130.764 -91.5249 -130.507C-91.7667 -130.249 -92.101 -130.098 -92.4541 -130.087C-92.8072 -130.076 -93.1503 -130.205 -93.408 -130.447M-135.957 -130.796C-137.297 -133.969 -138.232 -137.298 -138.739 -140.705C-138.766 -140.878 -138.758 -141.055 -138.717 -141.225C-138.675 -141.395 -138.601 -141.555 -138.498 -141.696C-138.394 -141.837 -138.264 -141.957 -138.115 -142.047C-137.965 -142.138 -137.799 -142.199 -137.627 -142.226L-137.609 -142.228C-137.262 -142.277 -136.91 -142.187 -136.629 -141.979C-136.348 -141.77 -136.161 -141.459 -136.107 -141.113C-135.633 -137.93 -134.759 -134.818 -133.506 -131.853C-133.433 -131.692 -133.394 -131.518 -133.389 -131.341C-133.385 -131.165 -133.416 -130.989 -133.48 -130.824C-133.544 -130.659 -133.64 -130.509 -133.763 -130.382C-133.886 -130.255 -134.033 -130.153 -134.195 -130.083C-134.358 -130.014 -134.533 -129.977 -134.709 -129.975C-134.886 -129.974 -135.061 -130.008 -135.225 -130.075C-135.389 -130.141 -135.537 -130.24 -135.662 -130.365C-135.788 -130.49 -135.886 -130.639 -135.953 -130.802M-122.015 -133.521C-122.151 -133.847 -122.153 -134.213 -122.019 -134.54C-121.885 -134.867 -121.626 -135.127 -121.301 -135.263C-118.112 -136.607 -114.75 -137.493 -111.314 -137.895C-110.972 -137.917 -110.636 -137.807 -110.373 -137.588C-110.11 -137.369 -109.942 -137.057 -109.903 -136.718C-109.864 -136.378 -109.957 -136.036 -110.163 -135.763C-110.369 -135.49 -110.672 -135.307 -111.01 -135.251C-114.197 -134.876 -117.316 -134.052 -120.272 -132.802C-120.378 -132.758 -120.488 -132.727 -120.602 -132.712C-120.893 -132.671 -121.19 -132.728 -121.446 -132.873C-121.701 -133.019 -121.902 -133.245 -122.016 -133.517M-138.02 -149.535C-138.373 -149.547 -138.706 -149.699 -138.947 -149.957C-139.188 -150.216 -139.317 -150.559 -139.305 -150.912C-139.176 -154.301 -138.817 -157.677 -138.231 -161.018C-138.171 -161.366 -137.975 -161.676 -137.686 -161.88C-137.397 -162.083 -137.04 -162.164 -136.691 -162.104C-136.343 -162.044 -136.033 -161.848 -135.829 -161.559C-135.626 -161.271 -135.545 -160.913 -135.605 -160.565C-136.171 -157.344 -136.518 -154.088 -136.643 -150.82C-136.649 -150.645 -136.689 -150.474 -136.761 -150.314C-136.834 -150.155 -136.937 -150.012 -137.065 -149.892C-137.193 -149.773 -137.343 -149.68 -137.507 -149.619C-137.671 -149.557 -137.845 -149.529 -138.02 -149.535ZM-135.057 -169.239C-135.226 -169.286 -135.383 -169.366 -135.521 -169.474C-135.658 -169.582 -135.773 -169.716 -135.859 -169.868C-135.945 -170.021 -136 -170.189 -136.021 -170.362C-136.042 -170.536 -136.029 -170.712 -135.982 -170.881C-135.116 -173.978 -134.074 -177.21 -132.87 -180.484C-132.81 -180.649 -132.718 -180.799 -132.599 -180.928C-132.481 -181.057 -132.338 -181.162 -132.179 -181.235C-132.021 -181.309 -131.849 -181.351 -131.674 -181.358C-131.499 -181.366 -131.325 -181.338 -131.16 -181.278C-130.996 -181.218 -130.845 -181.126 -130.716 -181.008C-130.587 -180.889 -130.483 -180.747 -130.409 -180.588C-130.335 -180.429 -130.294 -180.257 -130.286 -180.083C-130.279 -179.908 -130.306 -179.733 -130.366 -179.569C-131.541 -176.357 -132.566 -173.194 -133.413 -170.168C-133.46 -169.999 -133.54 -169.842 -133.648 -169.704C-133.756 -169.566 -133.89 -169.451 -134.042 -169.365C-134.195 -169.279 -134.363 -169.224 -134.536 -169.204C-134.71 -169.183 -134.886 -169.196 -135.055 -169.244M-128.295 -188.009C-128.609 -188.169 -128.848 -188.447 -128.958 -188.783C-129.068 -189.118 -129.041 -189.484 -128.881 -189.799C-127.351 -192.82 -125.628 -195.739 -123.722 -198.538C-123.625 -198.684 -123.499 -198.809 -123.352 -198.907C-123.206 -199.004 -123.042 -199.071 -122.869 -199.105C-122.697 -199.138 -122.519 -199.137 -122.347 -199.102C-122.175 -199.066 -122.011 -198.997 -121.866 -198.898C-121.721 -198.799 -121.596 -198.672 -121.5 -198.525C-121.404 -198.378 -121.338 -198.213 -121.306 -198.04C-121.274 -197.868 -121.276 -197.69 -121.313 -197.518C-121.35 -197.346 -121.42 -197.183 -121.52 -197.039C-123.362 -194.335 -125.027 -191.515 -126.505 -188.597C-126.665 -188.282 -126.943 -188.043 -127.278 -187.933C-127.614 -187.823 -127.979 -187.85 -128.295 -188.009ZM-117.386 -204.664C-117.518 -204.78 -117.625 -204.92 -117.702 -205.077C-117.78 -205.234 -117.825 -205.405 -117.836 -205.579C-117.847 -205.754 -117.824 -205.929 -117.768 -206.094C-117.711 -206.26 -117.623 -206.413 -117.507 -206.544C-115.273 -209.081 -112.898 -211.491 -110.393 -213.761C-110.265 -213.885 -110.113 -213.982 -109.947 -214.047C-109.78 -214.111 -109.603 -214.141 -109.425 -214.135C-109.246 -214.13 -109.071 -214.088 -108.909 -214.014C-108.747 -213.939 -108.601 -213.832 -108.481 -213.7C-108.361 -213.568 -108.269 -213.414 -108.21 -213.245C-108.151 -213.077 -108.126 -212.898 -108.137 -212.72C-108.149 -212.542 -108.196 -212.368 -108.275 -212.209C-108.355 -212.049 -108.466 -211.907 -108.602 -211.791C-111.033 -209.589 -113.337 -207.252 -115.506 -204.791C-115.739 -204.526 -116.068 -204.364 -116.42 -204.342C-116.773 -204.319 -117.12 -204.437 -117.385 -204.671M101.171 -245.523C98.4275 -246.177 95.1586 -246.81 91.4554 -247.407C91.1066 -247.464 90.7943 -247.656 90.5873 -247.942C90.3803 -248.229 90.2956 -248.585 90.3517 -248.934C90.4078 -249.283 90.6001 -249.595 90.8865 -249.802C91.1728 -250.009 91.5296 -250.094 91.8784 -250.038C95.6457 -249.43 98.98 -248.784 101.788 -248.115C101.959 -248.075 102.119 -248.001 102.261 -247.899C102.403 -247.796 102.523 -247.667 102.614 -247.518C102.706 -247.369 102.768 -247.203 102.795 -247.03C102.823 -246.857 102.816 -246.681 102.776 -246.511C102.735 -246.341 102.662 -246.18 102.559 -246.038C102.457 -245.897 102.327 -245.776 102.178 -245.685C102.029 -245.593 101.863 -245.532 101.691 -245.504C101.518 -245.476 101.341 -245.483 101.171 -245.523ZM-102.835 -218.305C-102.939 -218.446 -103.014 -218.606 -103.056 -218.775C-103.099 -218.945 -103.107 -219.122 -103.081 -219.294C-103.055 -219.467 -102.995 -219.634 -102.905 -219.783C-102.814 -219.933 -102.695 -220.064 -102.555 -220.167C-99.918 -222.115 -97.0962 -224.009 -94.1665 -225.798C-93.865 -225.982 -93.5027 -226.038 -93.1593 -225.955C-92.8159 -225.872 -92.5196 -225.656 -92.3356 -225.355C-92.1515 -225.053 -92.0948 -224.691 -92.1779 -224.347C-92.2609 -224.004 -92.477 -223.708 -92.7786 -223.524C-95.6402 -221.776 -98.3975 -219.926 -100.972 -218.024C-101.112 -217.92 -101.272 -217.844 -101.442 -217.802C-101.612 -217.76 -101.788 -217.752 -101.961 -217.778C-102.134 -217.804 -102.3 -217.864 -102.45 -217.954C-102.6 -218.044 -102.73 -218.164 -102.834 -218.304M81.61 -248.777C78.4413 -249.156 75.1109 -249.501 71.7089 -249.803C71.3564 -249.833 71.0306 -250.003 70.8031 -250.274C70.5756 -250.545 70.4651 -250.895 70.4959 -251.248C70.5267 -251.6 70.6963 -251.926 70.9674 -252.154C71.2384 -252.381 71.5887 -252.492 71.9412 -252.461C75.37 -252.156 78.7281 -251.808 81.9234 -251.426C82.2448 -251.388 82.5413 -251.234 82.7575 -250.993C82.9738 -250.752 83.0949 -250.441 83.0983 -250.117C83.1017 -249.794 82.9872 -249.48 82.7761 -249.235C82.565 -248.989 82.2718 -248.829 81.9513 -248.784C81.837 -248.768 81.7212 -248.767 81.6065 -248.78M-85.9382 -228.921C-86.0178 -229.077 -86.0658 -229.247 -86.0797 -229.421C-86.0935 -229.596 -86.0729 -229.771 -86.0189 -229.938C-85.9649 -230.104 -85.8787 -230.258 -85.7651 -230.391C-85.6515 -230.525 -85.5129 -230.634 -85.357 -230.713C-82.4463 -232.198 -79.3753 -233.634 -76.2293 -234.982C-76.068 -235.055 -75.8939 -235.094 -75.7172 -235.099C-75.5404 -235.103 -75.3646 -235.073 -75.1998 -235.009C-75.0351 -234.944 -74.8847 -234.848 -74.7576 -234.725C-74.6305 -234.602 -74.5291 -234.455 -74.4593 -234.293C-74.3896 -234.13 -74.3529 -233.956 -74.3513 -233.779C-74.3498 -233.602 -74.3835 -233.427 -74.4504 -233.263C-74.5173 -233.1 -74.6162 -232.951 -74.7412 -232.826C-74.8662 -232.701 -75.0148 -232.602 -75.1784 -232.535C-78.2709 -231.208 -81.2879 -229.798 -84.1459 -228.34C-84.3017 -228.26 -84.4717 -228.212 -84.6461 -228.198C-84.8206 -228.184 -84.9961 -228.205 -85.1626 -228.259C-85.329 -228.313 -85.4832 -228.399 -85.6163 -228.513C-85.7494 -228.626 -85.8588 -228.765 -85.9382 -228.921ZM61.7743 -250.549C58.5021 -250.753 55.1583 -250.92 51.8254 -251.045C51.6491 -251.05 51.4755 -251.089 51.3146 -251.161C51.1537 -251.233 51.0086 -251.337 50.888 -251.465C50.7673 -251.594 50.6733 -251.745 50.6115 -251.91C50.5497 -252.075 50.5213 -252.251 50.528 -252.427C50.5346 -252.603 50.5762 -252.777 50.6503 -252.937C50.7243 -253.097 50.8294 -253.24 50.9595 -253.359C51.0895 -253.478 51.2419 -253.571 51.4078 -253.63C51.5737 -253.69 51.7498 -253.716 51.9259 -253.707C55.2762 -253.58 58.6453 -253.413 61.9399 -253.208C62.2701 -253.189 62.5814 -253.047 62.8131 -252.811C63.0448 -252.575 63.1803 -252.261 63.1933 -251.931C63.2062 -251.6 63.0957 -251.276 62.8832 -251.023C62.6706 -250.769 62.3714 -250.604 62.0436 -250.559C61.9544 -250.547 61.8642 -250.544 61.7743 -250.549ZM41.8665 -251.304C38.5538 -251.35 35.202 -251.359 31.9041 -251.329C31.5543 -251.331 31.2194 -251.47 30.9717 -251.717C30.724 -251.964 30.5834 -252.299 30.5802 -252.649C30.5771 -252.998 30.7117 -253.335 30.9549 -253.587C31.1981 -253.838 31.5305 -253.984 31.8802 -253.992C35.1981 -254.023 38.5712 -254.015 41.9052 -253.967C42.0802 -253.965 42.2529 -253.928 42.4136 -253.859C42.5742 -253.789 42.7197 -253.689 42.8417 -253.564C42.9636 -253.438 43.0596 -253.29 43.1243 -253.128C43.189 -252.965 43.221 -252.791 43.2185 -252.616C43.216 -252.441 43.1792 -252.269 43.1099 -252.108C43.0407 -251.947 42.9405 -251.802 42.8151 -251.68C42.6896 -251.558 42.5414 -251.462 42.3788 -251.397C42.2163 -251.333 42.0426 -251.301 41.8676 -251.303M-67.6624 -236.969C-67.7219 -237.133 -67.7484 -237.308 -67.7404 -237.483C-67.7325 -237.657 -67.6901 -237.829 -67.6159 -237.987C-67.5416 -238.145 -67.4369 -238.288 -67.3077 -238.405C-67.1785 -238.523 -67.0273 -238.614 -66.8629 -238.674C-63.7877 -239.786 -60.5779 -240.853 -57.3187 -241.848C-56.9883 -241.929 -56.6394 -241.88 -56.3436 -241.712C-56.0479 -241.544 -55.8277 -241.269 -55.7282 -240.944C-55.6287 -240.618 -55.6576 -240.267 -55.8087 -239.962C-55.9599 -239.658 -56.222 -239.422 -56.5412 -239.304C-59.7579 -238.323 -62.926 -237.269 -65.9571 -236.174C-66.1216 -236.114 -66.2962 -236.087 -66.4711 -236.095C-66.6459 -236.103 -66.8174 -236.145 -66.9759 -236.22C-67.1343 -236.294 -67.2765 -236.399 -67.3942 -236.528C-67.512 -236.658 -67.603 -236.809 -67.6621 -236.974M21.9408 -251.123C18.6158 -251.012 15.2685 -250.86 11.991 -250.67C11.6398 -250.652 11.2958 -250.774 11.034 -251.009C10.7723 -251.244 10.614 -251.572 10.5937 -251.923C10.5734 -252.274 10.6928 -252.619 10.9258 -252.883C11.1588 -253.146 11.4865 -253.307 11.8374 -253.329C15.1368 -253.521 18.5063 -253.674 21.8533 -253.786C22.0282 -253.792 22.2024 -253.763 22.3662 -253.701C22.5299 -253.64 22.6799 -253.547 22.8077 -253.427C22.9354 -253.308 23.0383 -253.164 23.1106 -253.005C23.1829 -252.846 23.2231 -252.674 23.2289 -252.499C23.2347 -252.324 23.206 -252.15 23.1444 -251.986C23.0829 -251.822 22.9897 -251.672 22.8702 -251.544C22.7507 -251.417 22.6072 -251.314 22.4479 -251.241C22.2886 -251.169 22.1156 -251.129 21.9408 -251.123ZM-48.6064 -242.943C-48.6498 -243.113 -48.6595 -243.289 -48.6348 -243.462C-48.6101 -243.635 -48.5515 -243.802 -48.4624 -243.953C-48.3733 -244.103 -48.2554 -244.235 -48.1154 -244.34C-47.9754 -244.445 -47.8162 -244.521 -47.6467 -244.565C-44.4781 -245.378 -41.1876 -246.151 -37.8712 -246.861C-37.6992 -246.9 -37.5212 -246.905 -37.3475 -246.875C-37.1738 -246.845 -37.0077 -246.78 -36.8591 -246.685C-36.7104 -246.591 -36.5821 -246.467 -36.4815 -246.322C-36.381 -246.177 -36.3101 -246.014 -36.2732 -245.842C-36.2363 -245.669 -36.2339 -245.491 -36.2664 -245.318C-36.2988 -245.144 -36.3653 -244.979 -36.4621 -244.832C-36.5588 -244.684 -36.6839 -244.558 -36.83 -244.459C-36.9761 -244.36 -37.1404 -244.291 -37.3133 -244.257C-40.5983 -243.553 -43.8535 -242.788 -46.9917 -241.988C-47.0402 -241.975 -47.0894 -241.965 -47.139 -241.958C-47.4631 -241.913 -47.7925 -241.989 -48.0643 -242.171C-48.3361 -242.353 -48.5314 -242.629 -48.6129 -242.946M2.05128 -249.966C-1.27502 -249.685 -4.60894 -249.358 -7.85568 -248.992C-8.20673 -248.953 -8.55911 -249.054 -8.83531 -249.275C-9.11151 -249.495 -9.2889 -249.816 -9.32847 -250.167C-9.36803 -250.518 -9.26651 -250.87 -9.04626 -251.147C-8.82601 -251.423 -8.50506 -251.6 -8.15401 -251.64C-4.88238 -252.008 -1.5247 -252.338 1.82665 -252.62C2.17006 -252.646 2.5099 -252.537 2.77491 -252.317C3.03991 -252.097 3.20948 -251.783 3.24803 -251.441C3.28658 -251.099 3.19114 -250.755 2.9817 -250.482C2.77226 -250.208 2.46512 -250.027 2.1247 -249.975L2.05044 -249.965M-29.0979 -247.243C-29.1275 -247.416 -29.1225 -247.593 -29.0834 -247.764C-29.0443 -247.935 -28.9717 -248.097 -28.8699 -248.24C-28.768 -248.383 -28.639 -248.504 -28.4901 -248.597C-28.3412 -248.69 -28.1754 -248.752 -28.0023 -248.781C-24.7733 -249.351 -21.4389 -249.884 -18.0921 -250.363C-17.7473 -250.402 -17.401 -250.305 -17.1268 -250.092C-16.8526 -249.88 -16.6721 -249.569 -16.6239 -249.225C-16.5756 -248.881 -16.6632 -248.533 -16.8682 -248.253C-17.0732 -247.973 -17.3793 -247.784 -17.7215 -247.726C-21.0396 -247.251 -24.3462 -246.722 -27.5477 -246.157L-27.5953 -246.151C-27.9369 -246.103 -28.2837 -246.19 -28.5627 -246.392C-28.8417 -246.595 -29.0311 -246.898 -29.0912 -247.238" fill="white"/>
</g>
</g>
</g>
<defs>
<clipPath id="clip0_0_1">
<rect width="1366" height="5255" fill="white" transform="translate(-456 -4547)"/>
</clipPath>
</defs>
</svg>
