<svg width="565" height="522" viewBox="0 0 565 522" fill="none" xmlns="http://www.w3.org/2000/svg">
<rect width="565" height="522" fill="#F5F5F5"/>
<g clip-path="url(#clip0_0_1)">
<mask id="mask0_0_1" style="mask-type:luminance" maskUnits="userSpaceOnUse" x="-684" y="-3739" width="1366" height="5255">
<path d="M682 -3739H-684V1516H682V-3739Z" fill="white"/>
</mask>
<g mask="url(#mask0_0_1)">
<path d="M682 -3739H-684V1516H682V-3739Z" fill="white"/>
<path d="M520 503H-490C-521.48 503 -547 528.52 -547 560V846C-547 877.48 -521.48 903 -490 903H520C551.48 903 577 877.48 577 846V560C577 528.52 551.48 503 520 503Z" fill="#0086D5"/>
<mask id="mask1_0_1" style="mask-type:luminance" maskUnits="userSpaceOnUse" x="0" y="0" width="565" height="522">
<path d="M564.164 0.637939H0V522H564.164V0.637939Z" fill="white"/>
</mask>
<g mask="url(#mask1_0_1)">
<path d="M430.229 169.052C429.714 191.537 443.477 214.498 464.714 221.902C476.279 225.933 488.954 225.363 500.805 228.456C512.656 231.549 524.732 240.472 524.805 252.718C524.855 260.853 520.242 279.303 544.599 290.118C564.692 299.033 559.893 347.279 497.666 367.562C478.6 373.778 490.888 358.143 471.066 355.092C451.497 352.082 433.743 341.013 420.243 326.53C406.743 312.047 397.188 294.294 389.743 275.945C381.174 254.817 375.177 231.476 380.476 209.301C385.775 187.126 405.325 167.086 430.222 169.055" fill="black"/>
<path d="M490.587 370.351C486.348 370.351 484.767 368.059 483.175 364.894C481.5 361.558 479.601 357.778 470.865 356.436C452.348 353.587 434.016 343.296 419.253 327.456C407.253 314.581 397.189 297.9 388.487 276.456C377.559 249.519 374.593 228.078 379.159 208.985C384.314 187.417 404.019 165.61 430.334 167.698C430.681 167.726 431.004 167.886 431.237 168.144C431.47 168.402 431.596 168.74 431.588 169.088C431.065 191.983 445.188 213.656 465.162 220.62C471.462 222.82 478.3 223.641 484.906 224.435C490.374 224.971 495.8 225.876 501.147 227.143C513.141 230.274 526.085 239.611 526.168 252.712C526.176 253.772 526.107 255.002 526.032 256.303C525.503 265.659 524.706 279.803 545.153 288.872C552.695 292.219 557.045 300.803 556.508 311.272C555.581 329.355 539.724 355.284 498.09 368.856C495.681 369.737 493.152 370.243 490.59 370.356M426.859 170.279C403.674 170.279 386.482 190.048 381.806 209.612C377.382 228.129 380.306 249.042 391.012 275.43C399.584 296.561 409.474 312.971 421.247 325.597C435.595 340.991 453.364 350.986 471.281 353.744C481.406 355.3 483.834 360.137 485.609 363.67C487.384 367.203 488.367 369.158 497.246 366.264C537.567 353.121 552.906 328.349 553.789 311.13C554.268 301.813 550.536 294.235 544.049 291.356C521.88 281.519 522.777 265.634 523.314 256.143C523.389 254.833 523.452 253.701 523.447 252.724C523.372 241.059 511.478 232.651 500.461 229.771C495.233 228.538 489.928 227.657 484.582 227.135C477.829 226.321 470.846 225.479 464.265 223.184C443.585 215.977 428.858 193.884 428.853 170.329C428.183 170.296 427.518 170.279 426.859 170.279Z" fill="black"/>
<path d="M308.581 117.686C315.135 149.64 321.469 184.025 308.381 213.905C304.128 223.615 297.943 232.456 294.449 242.465C290.296 254.365 290.166 267.298 291.304 279.848C293.45 303.571 300.577 327.908 317.258 344.913C333.939 361.918 361.851 369.328 382.431 357.334C400.491 346.81 408.737 324.192 407.602 303.321C406.467 282.45 397.56 262.861 388.16 244.192C365.584 199.336 339.267 156.365 308.578 117.686" fill="black"/>
<path d="M354.789 273.531C355.376 256.498 353.274 246.957 352.589 234.22C359.486 230.771 366.867 228.39 374.479 227.16C377.89 226.609 381.736 226.396 384.361 228.46C386.006 229.75 393.794 222.878 394.603 224.769C400.149 237.769 400.619 256.308 406.168 269.312C406.594 270.312 426.023 268.512 426.452 269.512C428.26 273.745 426.743 308.997 425.4 309.891C354.305 357.16 320.063 289.559 320.063 289.559C320.063 289.559 332.957 281.659 354.791 273.531" fill="white"/>
<path d="M377.545 328.044C372.444 328.052 367.363 327.4 362.43 326.103C333.466 318.472 319.43 291.328 318.845 290.176C318.691 289.871 318.657 289.52 318.75 289.191C318.842 288.863 319.055 288.581 319.345 288.401C319.472 288.321 332.258 280.541 353.453 272.578C353.66 263.869 353.256 255.157 352.243 246.505C351.855 242.618 351.457 238.605 351.227 234.298C351.212 234.033 351.275 233.77 351.408 233.541C351.541 233.312 351.738 233.127 351.975 233.008C358.992 229.491 366.506 227.066 374.255 225.818C377.644 225.27 381.911 224.946 385.02 227.255C386.428 226.749 387.77 226.077 389.02 225.255C391.778 223.641 393.406 222.749 394.704 223.178C394.959 223.26 395.194 223.397 395.391 223.579C395.588 223.76 395.744 223.982 395.847 224.23C398.679 230.867 400.222 238.957 401.714 246.781C403.137 254.234 404.607 261.937 407.174 268.205C408.661 268.349 412.98 268.175 416.228 268.047C426.195 267.647 427.162 267.723 427.696 268.975C428.961 271.94 428.651 285.366 428.46 291C427.818 309.913 426.688 310.664 426.145 311.026C409.115 322.347 392.829 328.04 377.54 328.04M321.893 290.065C324.872 295.265 338.63 317.027 363.15 323.475C381.786 328.375 402.375 323.489 424.35 308.953C425.51 305.207 426.623 276.091 425.363 270.606C423.815 270.47 419.554 270.642 416.337 270.769C406.403 271.169 405.445 271.09 404.908 269.841C402.078 263.204 400.536 255.114 399.041 247.292C397.621 239.85 396.156 232.164 393.598 225.904C392.495 226.398 391.425 226.966 390.398 227.604C387.413 229.354 385.057 230.735 383.515 229.523C381.222 227.723 377.595 228.033 374.691 228.501C367.511 229.658 360.538 231.862 353.997 235.041C354.23 238.928 354.581 242.483 354.955 246.229C356.021 255.303 356.419 264.443 356.148 273.576C356.138 273.846 356.049 274.106 355.891 274.325C355.734 274.544 355.515 274.711 355.262 274.805C343.752 278.998 332.593 284.101 321.893 290.065Z" fill="black"/>
<path d="M301.228 125.527C303.316 141.301 306.505 157.846 302.428 173.554C300.199 182.118 300.412 225.654 335.346 238.054C344.932 241.451 355.159 242.648 365.27 241.555C375.381 240.461 385.117 237.107 393.755 231.739C406.602 223.948 422.201 199.739 419.097 175.7C429.732 178.651 440.245 171.48 440.364 161.917C440.436 156.404 434.364 149.496 427.938 149.817C422.965 150.061 422.376 150.11 418.593 152.998C415.81 141.299 414.486 129.3 414.653 117.276C402.564 103.962 383.194 97.162 363.812 94.257C357.381 93.1238 350.825 92.8752 344.326 93.518C325.726 95.838 299.082 109.327 301.226 125.527" fill="white"/>
<path d="M357.982 243.37C350.111 243.356 342.3 241.994 334.888 239.344C299.894 226.923 298.377 183.709 301.104 173.213C304.62 159.677 302.613 145.348 300.669 131.491C300.398 129.553 300.129 127.626 299.874 125.707C299.268 121.144 300.694 116.587 304.11 112.162C312.433 101.383 330.953 93.816 344.154 92.162C351.354 91.262 358.546 92.087 364.011 92.907C380.039 95.307 402.011 101.33 415.654 116.355C415.886 116.611 416.013 116.945 416.008 117.291C415.843 128.511 417.002 139.711 419.461 150.66C422.133 148.81 423.426 148.669 427.861 148.451C429.599 148.441 431.322 148.782 432.925 149.455C434.528 150.128 435.979 151.118 437.189 152.366C440.024 155.102 441.76 158.766 441.719 161.935C441.653 164.306 441.04 166.63 439.928 168.725C438.816 170.82 437.234 172.629 435.307 174.012C433.223 175.546 430.85 176.64 428.331 177.23C425.812 177.819 423.2 177.892 420.652 177.442C422.87 201.934 407.107 225.23 394.452 232.903C383.49 239.68 370.87 243.302 357.982 243.37ZM302.576 125.35C302.828 127.26 303.099 129.182 303.371 131.112C305.348 145.235 307.394 159.835 303.742 173.897C302.216 179.775 300.292 224.175 335.801 236.775C354.933 243.567 375.264 241.366 393.045 230.581C405.086 223.281 420.81 199.596 417.745 175.881C417.715 175.658 417.742 175.431 417.821 175.221C417.901 175.011 418.032 174.823 418.202 174.676C418.372 174.529 418.575 174.426 418.795 174.377C419.014 174.327 419.242 174.333 419.459 174.394C421.867 175.077 424.399 175.201 426.862 174.758C429.325 174.316 431.655 173.317 433.674 171.838C435.267 170.704 436.576 169.217 437.5 167.494C438.424 165.771 438.938 163.858 439.001 161.904C439.031 159.462 437.614 156.563 435.301 154.331C434.359 153.342 433.227 152.552 431.972 152.01C430.718 151.468 429.367 151.185 428.001 151.177C423.181 151.412 422.893 151.426 419.418 154.077C419.237 154.216 419.024 154.306 418.799 154.341C418.573 154.376 418.343 154.354 418.129 154.276C417.914 154.199 417.723 154.069 417.572 153.898C417.42 153.727 417.315 153.521 417.264 153.299C414.499 141.671 413.161 129.749 413.282 117.797C400.153 103.652 379.063 97.92 363.614 95.606C358.32 94.814 351.362 94.011 344.499 94.87C331.843 96.451 314.143 103.63 306.274 113.828C303.317 117.657 302.074 121.536 302.581 125.351" fill="black"/>
<path d="M377.518 189.399C372.274 189.361 367.219 187.433 363.281 183.97C358.378 179.701 355.237 173.763 354.465 167.308C352.695 153.619 361.371 141.178 373.802 139.568C376.836 139.195 379.915 139.47 382.834 140.377C385.754 141.283 388.447 142.8 390.736 144.826C395.589 149.134 398.721 155.052 399.552 161.488C400.383 167.924 398.857 174.443 395.257 179.842C393.557 182.382 391.337 184.532 388.744 186.15C386.151 187.768 383.244 188.817 380.215 189.228C379.32 189.343 378.418 189.401 377.515 189.4M376.485 142.118C375.704 142.118 374.923 142.169 374.148 142.27C363.209 143.678 355.589 154.757 357.165 166.959C357.852 172.745 360.662 178.07 365.05 181.902C367.04 183.695 369.394 185.037 371.951 185.835C374.508 186.634 377.207 186.869 379.863 186.526C382.52 186.184 385.071 185.27 387.341 183.849C389.612 182.427 391.548 180.532 393.017 178.292C396.234 173.447 397.595 167.604 396.85 161.836C396.106 156.068 393.306 150.762 388.964 146.892C385.514 143.853 381.085 142.157 376.488 142.116" fill="black"/>
<path d="M314.366 192.296C309.121 192.257 304.067 190.328 300.129 186.864C295.226 182.596 292.084 176.659 291.313 170.204C289.544 156.513 298.218 144.067 310.65 142.464C323.082 140.861 334.63 150.69 336.399 164.381C337.291 170.82 335.761 177.36 332.105 182.735C330.405 185.275 328.185 187.425 325.591 189.043C322.998 190.661 320.091 191.71 317.062 192.121C316.167 192.237 315.265 192.295 314.362 192.295M313.31 145.013C312.536 145.014 311.763 145.064 310.995 145.163C300.053 146.575 292.433 157.653 294.009 169.855C294.695 175.64 297.505 180.965 301.894 184.795C303.883 186.589 306.237 187.932 308.794 188.73C311.351 189.529 314.051 189.765 316.708 189.422C319.365 189.079 321.916 188.165 324.186 186.744C326.457 185.322 328.392 183.426 329.861 181.185C333.134 176.365 334.501 170.501 333.697 164.73C332.235 153.395 323.342 145.014 313.314 145.014" fill="black"/>
<path d="M433.05 29.151C430.739 21.5463 426.225 14.7977 420.079 9.75839C413.933 4.71911 406.43 1.61554 398.52 0.840158C390.61 0.0647715 382.648 1.65239 375.64 5.40224C368.632 9.1521 362.894 14.8958 359.15 21.907C355.407 28.9182 353.827 36.882 354.609 44.7913C355.392 52.7007 358.502 60.2004 363.547 66.342C368.592 72.4836 375.345 76.9914 382.951 79.2952C390.558 81.599 398.677 81.5955 406.282 79.285C416.48 76.1864 425.029 69.1637 430.049 59.7618C435.069 50.3598 436.148 39.3488 433.05 29.151Z" fill="black"/>
<path d="M417.204 154.647C407.01 138.829 400.772 127.438 397.422 108.18C359.77 130.48 324.029 133.945 287.979 132.571C287.218 126.438 288.505 112.866 291.052 107.054C297.301 92.8059 305.092 80.4689 326.857 70.7389C342.11 63.9219 362.64 59.3869 379.147 61.7659C395.547 64.1279 409.653 72.9959 421.135 83.6469C430.266 92.1219 437.986 106.021 440.702 119.757C443.025 131.521 440.145 140.199 434.874 152.184C431.914 150.589 429.132 148.978 425.701 149.637C422.27 150.296 420.064 152.043 417.201 154.646" fill="black"/>
<path d="M362.578 215.031C359.952 215.077 357.395 214.191 355.36 212.531C355.082 212.3 354.908 211.968 354.875 211.608C354.843 211.248 354.954 210.89 355.186 210.613C355.417 210.335 355.749 210.161 356.109 210.128C356.468 210.095 356.826 210.207 357.104 210.438C359.671 212.581 363.514 212.899 367.379 211.285C371.818 209.37 375.383 205.87 377.379 201.467C377.452 201.301 377.558 201.151 377.69 201.027C377.821 200.902 377.977 200.805 378.147 200.742C378.317 200.678 378.497 200.649 378.679 200.656C378.86 200.663 379.038 200.707 379.202 200.784C379.366 200.861 379.513 200.97 379.635 201.104C379.756 201.239 379.85 201.397 379.909 201.568C379.969 201.739 379.994 201.921 379.983 202.102C379.971 202.283 379.924 202.46 379.843 202.622C377.563 207.638 373.495 211.623 368.433 213.799C366.583 214.59 364.595 215.008 362.583 215.028" fill="black"/>
<path d="M375.948 165.472C375.89 164.714 375.606 163.992 375.133 163.397C374.66 162.802 374.02 162.363 373.295 162.136C372.57 161.908 371.793 161.904 371.066 162.122C370.338 162.341 369.693 162.773 369.213 163.362C368.733 163.951 368.441 164.671 368.374 165.428C368.307 166.184 368.469 166.944 368.838 167.608C369.207 168.272 369.767 168.81 370.445 169.153C371.123 169.496 371.888 169.628 372.642 169.531C373.126 169.482 373.595 169.338 374.023 169.107C374.451 168.876 374.829 168.564 375.136 168.187C375.443 167.81 375.673 167.376 375.812 166.91C375.952 166.444 375.998 165.956 375.948 165.472Z" fill="black"/>
<path d="M319.702 168.434C319.645 167.676 319.362 166.952 318.889 166.357C318.416 165.761 317.776 165.321 317.05 165.094C316.325 164.866 315.548 164.862 314.82 165.08C314.091 165.299 313.446 165.731 312.966 166.321C312.486 166.91 312.194 167.63 312.127 168.388C312.061 169.145 312.223 169.905 312.593 170.569C312.963 171.233 313.524 171.771 314.203 172.113C314.882 172.455 315.648 172.586 316.402 172.488C317.377 172.387 318.272 171.904 318.89 171.144C319.509 170.383 319.801 169.409 319.702 168.434Z" fill="black"/>
<path d="M340.813 191.443C340.647 191.443 340.483 191.413 340.328 191.354L335.198 189.405C334.709 189.274 334.254 189.039 333.864 188.716C333.474 188.394 333.157 187.991 332.936 187.536C332.385 186.102 333.321 184.845 333.825 184.169C335.725 181.634 337.022 178.7 337.617 175.589C338.213 172.477 338.092 169.271 337.264 166.214C337.166 165.866 337.21 165.494 337.387 165.179C337.563 164.864 337.858 164.631 338.205 164.534C338.553 164.436 338.926 164.48 339.241 164.656C339.556 164.833 339.788 165.127 339.886 165.475C340.826 168.934 340.966 172.562 340.295 176.083C339.623 179.604 338.158 182.925 336.01 185.795C335.816 186.037 335.648 186.299 335.51 186.576C335.722 186.683 335.94 186.777 336.163 186.858L341.293 188.807C341.591 188.92 341.841 189.134 341.998 189.412C342.154 189.69 342.209 190.014 342.151 190.327C342.093 190.641 341.927 190.925 341.682 191.129C341.436 191.333 341.127 191.444 340.808 191.443" fill="black"/>
<path d="M334.131 160.848C333.774 160.848 333.432 160.708 333.178 160.458C332.924 160.208 332.778 159.868 332.772 159.511C332.711 155.975 336.142 153.511 339.572 152.639C342.36 151.949 345.272 151.925 348.071 152.57C350.87 153.215 353.477 154.51 355.682 156.351C355.954 156.588 356.121 156.924 356.146 157.284C356.17 157.644 356.051 157.999 355.814 158.271C355.576 158.544 355.241 158.71 354.88 158.735C354.52 158.76 354.165 158.64 353.893 158.403C352.023 156.847 349.812 155.753 347.441 155.21C345.069 154.667 342.603 154.69 340.242 155.277C337.858 155.886 335.46 157.52 335.494 159.463C335.5 159.824 335.362 160.172 335.111 160.431C334.861 160.691 334.518 160.84 334.157 160.847L334.131 160.848Z" fill="black"/>
<path d="M396.86 154.873C396.681 154.873 396.504 154.839 396.339 154.77C396.173 154.702 396.023 154.602 395.896 154.476C395.64 154.221 395.496 153.875 395.495 153.514C395.494 153.153 395.637 152.806 395.892 152.55C396.147 152.294 396.493 152.15 396.854 152.149L415.465 152.096C415.826 152.095 416.172 152.238 416.428 152.492C416.684 152.747 416.828 153.093 416.829 153.454C416.83 153.815 416.687 154.161 416.432 154.417C416.178 154.673 415.832 154.817 415.471 154.818L396.862 154.873H396.86Z" fill="black"/>
<path d="M418.86 167.745H418.846C418.667 167.743 418.49 167.706 418.326 167.636C418.161 167.566 418.012 167.464 417.887 167.336C417.762 167.209 417.663 167.057 417.596 166.891C417.529 166.725 417.496 166.548 417.498 166.369C417.539 161.799 416.644 157.268 414.868 153.057C414.727 152.725 414.724 152.35 414.859 152.015C414.994 151.681 415.257 151.413 415.59 151.272C415.922 151.132 416.297 151.128 416.631 151.264C416.966 151.399 417.233 151.662 417.374 151.994C419.296 156.549 420.266 161.45 420.223 166.394C420.219 166.753 420.074 167.095 419.819 167.347C419.564 167.6 419.22 167.741 418.861 167.742" fill="black"/>
<path d="M555.193 418.964C538.736 373.989 529.657 329.611 490.836 297.209C472.202 281.657 449.729 270.624 423.836 268.962C422.25 294.033 393.125 310.551 377.518 312.415C369.024 313.431 337.471 317.631 337.471 280.428C327.171 284.528 292.914 288.737 279.171 330.949C273.553 348.212 263.489 414.288 230.311 452.585C222.475 461.628 215.235 401.441 203.961 405.447C192.897 409.379 180.155 415.963 179.325 427.674C178.677 436.802 186.197 444.752 194.603 448.365C212.666 456.126 219.433 493.734 238.903 496.477C259.142 499.332 291.468 506.791 315.932 430.304C328.432 442.804 336.504 456.239 350.532 463.797C390.956 485.59 525.455 510.057 547.367 513.944C549.186 514.268 553.317 512.778 554.042 511.078C558.642 500.308 570.696 461.34 555.194 418.962" fill="#0086D5"/>
<path d="M547.875 515.347C547.624 515.349 547.374 515.329 547.127 515.289C521.25 510.696 390.127 486.689 349.885 464.998C340.153 459.754 333.25 451.774 325.946 443.33C322.967 439.888 319.899 436.344 316.538 432.861C306.122 464.58 293.466 484.445 277.886 493.555C264.228 501.54 251.22 499.646 240.766 498.123C240.068 498.02 239.384 497.92 238.714 497.823C227.65 496.264 220.568 484.3 213.714 472.73C207.985 463.053 202.06 453.044 194.07 449.611C185.537 445.948 177.25 437.711 177.97 427.575C178.67 417.675 187.027 410.021 203.509 404.163C204.105 403.947 204.739 403.858 205.372 403.902C206.004 403.946 206.62 404.121 207.18 404.418C212.402 407.026 216.38 419.782 220.235 432.118C222.813 440.369 226.343 451.665 228.635 452.144C228.835 452.172 229.186 451.809 229.288 451.693C255.693 421.212 267.51 372.272 273.859 345.98C275.476 339.28 276.759 333.986 277.879 330.528C289.929 293.502 318.017 285.018 331.515 280.94C333.702 280.281 335.588 279.711 336.967 279.162C337.173 279.08 337.397 279.049 337.618 279.074C337.839 279.098 338.05 279.176 338.234 279.3C338.418 279.425 338.568 279.593 338.672 279.79C338.776 279.986 338.83 280.205 338.83 280.427C338.83 291.665 341.795 299.994 347.643 305.179C357.026 313.505 371.584 311.755 377.069 311.099L377.357 311.063C392.283 309.28 420.937 293.218 422.476 268.876C422.499 268.516 422.664 268.179 422.935 267.94C423.206 267.701 423.561 267.58 423.921 267.602C448.051 269.15 470.857 278.76 491.708 296.164C524.027 323.14 535.825 358.064 548.32 395.03C550.912 402.702 553.594 410.64 556.468 418.495C570.528 456.933 562.343 495.114 555.289 511.616C554.364 513.781 550.314 515.346 547.872 515.346M315.932 428.946C316.294 428.946 316.64 429.09 316.896 429.346C320.952 433.405 324.538 437.546 328.001 441.546C335.142 449.8 341.883 457.594 351.175 462.602C391.048 484.096 521.793 508.026 547.598 512.602C548.988 512.843 552.377 511.502 552.787 510.542C553.546 508.77 571.155 466.566 553.911 419.428C551.026 411.54 548.34 403.588 545.74 395.899C533.372 359.299 521.691 324.737 489.964 298.251C469.952 281.551 448.128 272.186 425.081 270.411C423.666 284.299 414.421 294.377 406.781 300.452C397.938 307.482 386.517 312.709 377.681 313.764L377.393 313.797C371.576 314.497 356.132 316.347 345.835 307.213C339.73 301.797 336.471 293.439 336.135 282.35C335.003 282.727 333.712 283.117 332.303 283.543C318.243 287.787 292.076 295.695 280.469 331.365C279.375 334.723 278.107 339.973 276.504 346.615C270.104 373.131 258.183 422.49 231.343 453.472C230.981 453.981 230.482 454.378 229.903 454.614C229.325 454.85 228.691 454.917 228.076 454.807C224.396 454.04 221.838 446.387 217.635 432.926C214.296 422.241 210.143 408.943 205.959 406.853C205.726 406.723 205.468 406.644 205.202 406.623C204.936 406.601 204.668 406.637 204.417 406.728C189.064 412.185 181.301 419.065 180.683 427.768C180.063 436.523 187.743 443.932 195.141 447.11C203.948 450.892 210.103 461.289 216.056 471.342C222.878 482.865 229.321 493.749 239.089 495.126C239.765 495.22 240.454 495.326 241.154 495.426C261.133 498.339 291.332 502.735 314.634 429.89C314.705 429.667 314.831 429.467 315.002 429.308C315.173 429.149 315.382 429.037 315.609 428.982C315.714 428.957 315.822 428.944 315.93 428.943" fill="black"/>
<path d="M506.928 462.344C470.01 460.287 432.867 457.744 395.722 455.19C392.397 454.642 375.873 452.277 371.795 451.679C368.35 451.076 365.008 449.983 361.872 448.434C350.825 443.334 327.122 433.325 321.833 436.285C309.648 439.868 298.603 448.667 289.97 459.803C285.125 466.055 281.154 476.41 283.159 478.19C283.748 478.806 284.539 479.188 285.387 479.265C286.235 479.343 287.083 479.112 287.774 478.614C293.621 466.205 303.656 456.255 316.115 450.514C310.36 453.767 305.016 457.7 300.2 462.229C295.327 466.814 290.847 472.34 289.751 478.941C289.613 479.448 289.659 479.988 289.881 480.464C290.543 481.558 292.232 480.921 293.237 480.132C295.211 478.59 320.609 457.96 325.354 458.508C319.044 460.889 296.548 479.146 296.454 481.09C296.368 482.024 296.622 482.957 297.171 483.718C297.605 484.185 298.152 484.531 298.759 484.724C299.367 484.917 300.013 484.949 300.637 484.818C301.88 484.538 303.058 484.024 304.109 483.303C311.371 478.892 318.019 473.36 325.866 470.096C329.784 468.465 334.566 467.527 338.051 469.949C331.03 472.557 324.57 476.478 319.016 481.503C318.141 482.312 317.401 483.255 316.823 484.297C315.959 485.842 314.987 488.076 316.186 489.353C318.144 491.438 319.799 490.389 321.48 489.406C328.023 485.05 334.995 481.375 342.287 478.439C344.519 477.55 347.187 476.769 349.206 478.065C350.959 479.186 359.434 484.45 376.852 485.352C382.797 485.662 388.528 487.21 395.959 489.252C493.849 516.232 523.089 526.997 546.801 516.797C551.444 514.797 553.009 512.364 551.461 504.397C547.33 483.116 543.29 471.023 506.929 462.343" fill="white"/>
<path d="M526.936 522C508.181 522 481.468 514.53 431.229 500.481C420.641 497.521 408.644 494.168 395.598 490.572C388.684 488.672 382.715 487.022 376.784 486.715C360.479 485.868 351.555 481.189 348.474 479.215C346.96 478.249 344.642 478.969 342.793 479.708C335.585 482.604 328.695 486.235 322.232 490.545L322.049 490.656C320.377 491.636 317.849 493.115 315.194 490.288C313.142 488.101 315.02 484.742 315.634 483.638C316.283 482.471 317.114 481.414 318.095 480.507C322.923 476.11 328.447 472.544 334.442 469.956C331.756 469.516 328.733 470.382 326.388 471.356C321.288 473.482 316.559 476.683 311.988 479.781C309.665 481.356 307.262 482.981 304.814 484.471C303.617 485.286 302.273 485.86 300.857 486.163C299.996 486.339 299.104 486.285 298.27 486.006C297.437 485.728 296.691 485.234 296.109 484.576C295.343 483.56 294.981 482.296 295.093 481.029C295.15 480.68 295.293 480.351 295.508 480.071L294.963 480.503C294.534 480.846 294.232 481.087 294.074 481.209C293.067 482.059 291.764 482.476 290.45 482.366C290.092 482.303 289.752 482.164 289.453 481.959C289.153 481.753 288.901 481.486 288.714 481.175C288.485 480.788 288.352 480.353 288.326 479.904C287.385 480.493 286.272 480.745 285.168 480.619C284.065 480.493 283.038 479.996 282.254 479.209C278.979 476.309 284.771 464.288 288.891 458.972C298.324 446.801 309.535 438.519 321.318 435.017C327.703 431.83 352.159 442.454 362.439 447.199C365.46 448.687 368.676 449.742 371.991 450.333C373.071 450.491 375.023 450.773 377.373 451.114C383.733 452.033 393.318 453.414 395.873 453.838C432.107 456.327 469.58 458.899 506.996 460.984C507.077 460.989 507.158 461.001 507.237 461.02C544.416 469.897 548.599 482.544 552.791 504.138C554.342 512.12 552.965 515.631 547.331 518.051C540.884 520.786 533.933 522.132 526.931 521.999M346.688 476.023C347.837 476 348.967 476.313 349.941 476.923C352.841 478.778 361.271 483.183 376.925 483.997C383.152 484.318 389.254 485.997 396.325 487.948C409.374 491.548 421.374 494.9 431.961 497.86C502.42 517.56 526.161 524.196 546.261 515.552C550.01 513.938 551.613 512.34 550.121 504.66C546.032 483.598 542.241 472.199 506.729 463.699C469.309 461.614 431.851 459.039 395.629 456.55C395.587 456.55 395.543 456.542 395.502 456.536C393.071 456.136 383.394 454.736 376.99 453.809C374.637 453.468 372.679 453.186 371.599 453.028C368.024 452.403 364.556 451.273 361.299 449.672C341.436 440.505 325.84 435.599 322.499 437.472C322.41 437.523 322.315 437.563 322.217 437.591C311.1 440.861 300.031 449.045 291.047 460.638C286.094 467.028 283.275 475.899 284.1 477.212C284.43 477.549 284.855 477.777 285.317 477.868C285.78 477.958 286.259 477.906 286.692 477.719C292.721 465.178 302.923 455.125 315.551 449.281C315.87 449.135 316.233 449.118 316.565 449.233C316.897 449.349 317.171 449.588 317.33 449.9C317.489 450.213 317.522 450.575 317.42 450.912C317.319 451.248 317.092 451.532 316.786 451.704C311.126 454.904 305.871 458.772 301.134 463.225C295.156 468.846 291.967 473.91 291.095 479.167C291.061 479.339 291.043 479.514 291.042 479.69C291.541 479.602 292.009 479.385 292.399 479.061C292.554 478.942 292.85 478.704 293.266 478.372C320.58 456.585 324.166 457 325.513 457.158C325.816 457.193 326.098 457.329 326.315 457.544C326.531 457.759 326.669 458.04 326.707 458.343C326.744 458.646 326.679 458.952 326.521 459.213C326.363 459.475 326.122 459.675 325.837 459.783C319.989 461.992 299.573 478.508 297.809 481.36C297.764 481.694 297.806 482.034 297.93 482.347C298.055 482.661 298.258 482.937 298.52 483.149C298.781 483.362 299.093 483.503 299.426 483.56C299.758 483.617 300.099 483.588 300.417 483.475C301.486 483.22 302.499 482.767 303.402 482.14C305.791 480.689 308.167 479.081 310.465 477.522C315.144 474.352 319.984 471.071 325.341 468.839C329.192 467.239 334.661 465.932 338.828 468.833C339.032 468.974 339.194 469.169 339.295 469.395C339.397 469.621 339.434 469.871 339.404 470.118C339.374 470.364 339.277 470.597 339.124 470.792C338.971 470.988 338.767 471.137 338.535 471.225C331.67 473.762 325.356 477.592 319.935 482.508C319.168 483.22 318.519 484.049 318.011 484.964C316.599 487.492 317.017 488.248 317.178 488.422C318.294 489.607 318.906 489.338 320.672 488.303L320.794 488.231C327.391 483.834 334.424 480.13 341.781 477.175C343.331 476.489 344.994 476.098 346.687 476.02" fill="black"/>
<path d="M262.556 510.019L354.475 511.99L354.594 496.377L252.286 493.877L262.556 510.019Z" fill="black"/>
<path d="M1.362 367.463L201.185 368.557L270.057 510.015L72.109 509.515L1.362 367.463Z" fill="white"/>
<path d="M270.057 511.379L72.109 510.879C71.8566 510.878 71.6092 510.808 71.3947 510.675C71.1801 510.542 71.0068 510.352 70.894 510.126L0.144 368.072C0.0407785 367.865 -0.00775957 367.634 0.00298829 367.403C0.0137361 367.171 0.0834137 366.947 0.205414 366.75C0.327414 366.553 0.497693 366.39 0.700104 366.278C0.902514 366.165 1.13035 366.106 1.362 366.106H1.37L201.19 367.2C201.444 367.202 201.693 367.274 201.908 367.41C202.124 367.545 202.297 367.738 202.408 367.967L271.28 509.425C271.38 509.633 271.427 509.862 271.414 510.093C271.402 510.323 271.331 510.546 271.209 510.742C271.086 510.938 270.917 511.099 270.715 511.211C270.513 511.323 270.287 511.382 270.056 511.383M72.956 508.163L267.878 508.653L200.329 369.916L3.566 368.839L72.956 508.163Z" fill="black"/>
<path d="M127.753 425.102C122.08 424.545 115.883 426.063 113.572 431.271C111.261 436.479 113.032 443.01 117.243 446.853C121.454 450.696 127.676 451.934 133.235 450.682C136.235 450.004 139.215 448.55 140.943 446C142.101 444.189 142.701 442.077 142.668 439.928C142.715 432.912 139.514 426.256 127.753 425.101" fill="white"/>
<path d="M128.982 452.516C124.332 452.582 119.822 450.923 116.323 447.859C111.539 443.493 109.858 436.286 112.323 430.721C114.585 425.621 120.405 423.021 127.881 423.747C141.304 425.065 144.07 433.28 144.026 439.939C144.061 442.359 143.379 444.734 142.066 446.767C139.866 450.009 136.21 451.41 133.53 452.011C132.036 452.348 130.509 452.518 128.978 452.518M125.608 426.364C122.313 426.364 116.898 427.128 114.808 431.827C112.801 436.351 114.208 442.249 118.15 445.848C120.161 447.56 122.55 448.771 125.121 449.38C127.691 449.989 130.369 449.98 132.935 449.353C135.663 448.891 138.118 447.421 139.815 445.236C140.818 443.645 141.335 441.797 141.305 439.917C141.36 431.769 136.883 427.366 127.619 426.458C127.146 426.411 126.445 426.358 125.612 426.358" fill="black"/>
<path d="M484.903 462.428C484.616 462.428 484.337 462.337 484.105 462.169C483.873 462.001 483.7 461.764 483.61 461.492C469.703 419.382 461.833 392.744 461.833 334.999C461.833 334.638 461.976 334.292 462.232 334.037C462.487 333.781 462.833 333.638 463.194 333.638C463.555 333.638 463.901 333.781 464.156 334.037C464.412 334.292 464.555 334.638 464.555 334.999C464.555 392.326 472.374 418.792 486.193 460.639C486.249 460.809 486.271 460.988 486.258 461.166C486.244 461.344 486.196 461.518 486.116 461.678C486.035 461.838 485.924 461.98 485.788 462.097C485.653 462.213 485.496 462.302 485.326 462.358C485.189 462.404 485.045 462.427 484.9 462.427" fill="black"/>
<path d="M315.938 431.664C315.718 431.664 315.501 431.612 315.307 431.51C315.112 431.408 314.944 431.261 314.819 431.08C296.872 405.264 301.726 386.357 306.419 368.069C308.761 358.938 311.187 349.494 310.805 339.169C310.798 338.99 310.826 338.812 310.889 338.644C310.951 338.476 311.045 338.322 311.167 338.191C311.289 338.06 311.435 337.954 311.598 337.88C311.76 337.805 311.936 337.763 312.115 337.757C312.475 337.747 312.824 337.879 313.088 338.124C313.352 338.369 313.51 338.707 313.527 339.067C313.927 349.785 311.45 359.423 309.058 368.745C304.307 387.251 299.819 404.73 317.058 429.522C317.2 429.726 317.284 429.965 317.299 430.213C317.315 430.461 317.263 430.709 317.148 430.93C317.033 431.15 316.86 431.335 316.647 431.464C316.435 431.593 316.191 431.662 315.942 431.662" fill="black"/>
<path d="M374.353 368.194C356.209 368.194 338.047 366.555 320.415 362.136C320.355 362.124 320.297 362.1 320.246 362.066C320.196 362.031 320.152 361.986 320.119 361.934C320.086 361.882 320.064 361.824 320.054 361.764C320.044 361.703 320.047 361.641 320.062 361.581C320.077 361.521 320.103 361.465 320.141 361.416C320.178 361.367 320.225 361.326 320.278 361.296C320.332 361.265 320.391 361.246 320.452 361.239C320.513 361.233 320.575 361.238 320.634 361.256C365.357 372.464 413.617 365.711 456.191 359.75C456.31 359.733 456.431 359.764 456.528 359.837C456.624 359.909 456.688 360.017 456.704 360.137C456.721 360.256 456.69 360.377 456.618 360.473C456.545 360.57 456.437 360.633 456.318 360.65C430.418 364.274 402.405 368.195 374.352 368.195" fill="black"/>
<path d="M390.711 403.068C364.048 403.083 337.479 399.904 311.572 393.599C311.46 393.566 311.364 393.491 311.306 393.39C311.248 393.288 311.231 393.168 311.258 393.054C311.286 392.941 311.357 392.842 311.455 392.779C311.554 392.716 311.673 392.693 311.788 392.716C359.459 404.297 409.096 405.239 457.172 395.476C457.231 395.462 457.292 395.46 457.352 395.47C457.412 395.481 457.469 395.503 457.52 395.535C457.572 395.568 457.616 395.611 457.65 395.661C457.684 395.711 457.708 395.767 457.721 395.826C457.733 395.886 457.733 395.947 457.721 396.007C457.709 396.066 457.686 396.123 457.652 396.173C457.618 396.223 457.574 396.266 457.523 396.299C457.472 396.332 457.415 396.354 457.355 396.365C435.422 400.833 413.094 403.077 390.711 403.065" fill="black"/>
<path d="M558.25 473.876C558.184 473.876 558.119 473.861 558.059 473.833C558 473.805 557.947 473.765 557.904 473.715C549.431 463.939 538.603 456.488 526.445 452.067C514.287 447.647 501.201 446.403 488.428 448.453C488.369 448.463 488.308 448.461 488.25 448.448C488.192 448.434 488.136 448.41 488.088 448.375C488.039 448.34 487.997 448.296 487.965 448.245C487.934 448.195 487.912 448.138 487.902 448.079C487.892 448.02 487.894 447.959 487.907 447.901C487.921 447.843 487.945 447.787 487.98 447.739C488.015 447.69 488.059 447.648 488.11 447.616C488.16 447.585 488.217 447.563 488.276 447.553C501.205 445.479 514.449 446.739 526.754 451.214C539.06 455.689 550.02 463.231 558.596 473.125C558.652 473.191 558.688 473.272 558.7 473.358C558.712 473.444 558.699 473.531 558.662 473.61C558.626 473.688 558.568 473.755 558.495 473.802C558.422 473.848 558.337 473.873 558.25 473.873" fill="black"/>
<path d="M555.199 455.699C555.141 455.699 555.084 455.688 555.03 455.666C552.407 454.431 550.019 452.748 547.973 450.693C547.228 450.026 546.461 449.339 545.686 448.705C540.94 444.817 535.228 442.289 529.159 441.39C529.042 441.37 528.937 441.305 528.867 441.209C528.797 441.112 528.768 440.993 528.785 440.875C528.803 440.757 528.866 440.651 528.96 440.579C529.055 440.507 529.174 440.475 529.292 440.49C535.524 441.414 541.388 444.01 546.262 448.002C547.051 448.65 547.826 449.345 548.577 450.015C550.548 451.996 552.846 453.622 555.369 454.824C555.467 454.863 555.548 454.936 555.598 455.028C555.648 455.121 555.665 455.228 555.645 455.331C555.625 455.434 555.57 455.528 555.488 455.595C555.407 455.662 555.305 455.699 555.2 455.699" fill="black"/>
</g>
<mask id="mask2_0_1" style="mask-type:luminance" maskUnits="userSpaceOnUse" x="134" y="157" width="67" height="75">
<path d="M200.234 157.825H134.189V231.946H200.234V157.825Z" fill="white"/>
</mask>
<g mask="url(#mask2_0_1)">
<path d="M166.537 227.271C165.701 227.268 164.885 227.014 164.195 226.541C163.253 225.899 162.519 224.995 162.084 223.941C160.379 219.953 159.635 215.62 159.911 211.291C160.186 206.962 161.474 202.759 163.671 199.019C164.406 197.803 164.632 196.882 164.34 196.283C164.048 195.684 163.185 195.29 161.775 195.118C157.477 194.536 153.376 192.952 149.801 190.495C146.227 188.038 143.28 184.776 141.197 180.971C140.637 179.978 140.38 178.843 140.456 177.705C140.497 176.995 140.724 176.309 141.114 175.714C141.504 175.12 142.043 174.638 142.678 174.318L166.193 162.886C166.837 162.584 167.548 162.457 168.257 162.517C168.965 162.578 169.645 162.823 170.228 163.23C171.17 163.873 171.904 164.776 172.34 165.83C174.045 169.819 174.789 174.151 174.513 178.48C174.237 182.809 172.949 187.012 170.752 190.752C170.017 191.968 169.792 192.889 170.084 193.489C170.376 194.089 171.238 194.481 172.649 194.653C176.947 195.236 181.048 196.82 184.622 199.277C188.196 201.735 191.143 204.997 193.226 208.802C193.786 209.795 194.044 210.93 193.967 212.068C193.927 212.778 193.7 213.465 193.31 214.059C192.92 214.654 192.38 215.135 191.745 215.455L168.23 226.884C167.702 227.139 167.123 227.271 166.536 227.27M167.894 163.51C167.458 163.509 167.028 163.608 166.636 163.799L143.122 175.228C142.645 175.467 142.241 175.828 141.95 176.275C141.659 176.722 141.493 177.238 141.468 177.771C141.406 178.712 141.62 179.65 142.084 180.471C144.089 184.136 146.926 187.28 150.367 189.649C153.808 192.017 157.758 193.545 161.897 194.109C163.697 194.329 164.797 194.895 165.252 195.838C165.707 196.781 165.478 197.993 164.54 199.544C162.426 203.147 161.187 207.196 160.923 211.366C160.659 215.535 161.378 219.708 163.022 223.549C163.382 224.421 163.988 225.169 164.766 225.701C165.2 226.01 165.708 226.198 166.238 226.245C166.769 226.293 167.302 226.198 167.784 225.971L191.3 214.541C191.777 214.302 192.181 213.941 192.472 213.494C192.763 213.048 192.929 212.531 192.954 211.999C193.016 211.058 192.803 210.12 192.34 209.299C190.335 205.633 187.498 202.49 184.056 200.121C180.615 197.752 176.665 196.225 172.525 195.661C170.725 195.441 169.625 194.875 169.17 193.932C168.715 192.989 168.945 191.777 169.883 190.226C171.997 186.623 173.236 182.574 173.5 178.404C173.764 174.235 173.045 170.062 171.401 166.221C171.041 165.35 170.435 164.603 169.657 164.071C169.139 163.712 168.525 163.517 167.894 163.512" fill="black"/>
<path d="M165.116 182.739C161.148 183.968 157.102 184.91 153.252 186.486C156.128 188.511 159.453 189.806 162.941 190.258C163.737 190.354 164.516 190.559 165.257 190.866C165.473 190.093 165.794 189.352 166.21 188.666C167.523 186.476 168.429 184.066 168.884 181.554C167.629 181.954 166.372 182.349 165.114 182.739" fill="#0086D5"/>
<path d="M165.258 191.373C165.189 191.373 165.121 191.36 165.058 191.334C164.36 191.044 163.625 190.852 162.875 190.761C159.306 190.296 155.903 188.972 152.958 186.903C152.883 186.851 152.823 186.779 152.785 186.696C152.748 186.612 152.733 186.52 152.743 186.429C152.754 186.338 152.788 186.252 152.844 186.179C152.899 186.106 152.973 186.049 153.058 186.015C155.745 184.972 158.487 184.078 161.272 183.337C162.485 182.991 163.74 182.632 164.964 182.253C166.22 181.864 167.475 181.469 168.73 181.069C168.814 181.043 168.903 181.038 168.988 181.056C169.074 181.074 169.154 181.114 169.219 181.172C169.285 181.23 169.335 181.304 169.363 181.387C169.392 181.47 169.399 181.559 169.383 181.645C168.917 184.219 167.989 186.687 166.642 188.929C166.249 189.576 165.947 190.273 165.742 191.001C165.712 191.108 165.649 191.202 165.561 191.269C165.472 191.336 165.365 191.373 165.254 191.373M154.343 186.6C156.961 188.276 159.919 189.352 163.002 189.75C163.66 189.831 164.307 189.98 164.933 190.196C165.15 189.57 165.432 188.969 165.775 188.402C166.912 186.512 167.736 184.45 168.214 182.296C167.233 182.608 166.25 182.916 165.266 183.221C164.031 183.603 162.771 183.963 161.553 184.311C159.164 184.992 156.705 185.695 154.343 186.597" fill="black"/>
<path d="M172.602 201.817C171.807 201.72 171.03 201.516 170.29 201.209C170.073 201.982 169.753 202.722 169.337 203.409C166.45 208.359 165.548 214.22 166.813 219.809L187.061 209.967C183.447 205.52 178.282 202.609 172.606 201.821" fill="#0086D5"/>
<path d="M166.808 220.314C166.731 220.314 166.655 220.296 166.585 220.262C166.516 220.228 166.455 220.179 166.408 220.118C166.36 220.058 166.327 219.987 166.311 219.912C165.034 214.196 165.958 208.209 168.899 203.144C169.291 202.498 169.594 201.801 169.799 201.073C169.818 201.004 169.852 200.94 169.898 200.885C169.944 200.83 170.001 200.785 170.066 200.754C170.131 200.722 170.201 200.705 170.273 200.703C170.344 200.701 170.416 200.714 170.482 200.741C171.181 201.03 171.916 201.222 172.666 201.314C178.465 202.131 183.743 205.104 187.448 209.639C187.497 209.698 187.533 209.768 187.551 209.842C187.569 209.917 187.571 209.995 187.554 210.07C187.538 210.146 187.505 210.216 187.458 210.277C187.41 210.337 187.349 210.386 187.28 210.42L167.03 220.264C166.961 220.298 166.885 220.316 166.808 220.316M170.608 201.877C170.392 202.503 170.11 203.105 169.766 203.671C167.065 208.318 166.145 213.789 167.175 219.064L186.24 209.797C182.729 205.729 177.861 203.073 172.54 202.324C171.882 202.244 171.235 202.095 170.609 201.878" fill="black"/>
<path d="M197.872 208.852L159.252 227.624L161.106 231.438L199.726 212.666L197.872 208.852Z" fill="white"/>
<path d="M161.106 231.946C161.05 231.946 160.993 231.937 160.94 231.918C160.813 231.874 160.708 231.781 160.649 231.66L158.795 227.846C158.766 227.786 158.749 227.721 158.745 227.654C158.741 227.588 158.75 227.521 158.772 227.458C158.794 227.395 158.828 227.337 158.872 227.287C158.916 227.238 158.97 227.197 159.03 227.168L197.649 208.396C197.709 208.367 197.774 208.35 197.84 208.345C197.907 208.341 197.974 208.35 198.037 208.372C198.1 208.394 198.158 208.428 198.208 208.472C198.257 208.516 198.298 208.57 198.327 208.63L200.182 212.443C200.241 212.564 200.249 212.704 200.205 212.831C200.161 212.958 200.068 213.063 199.947 213.122L161.327 231.894C161.258 231.928 161.183 231.946 161.106 231.946ZM159.93 227.858L161.34 230.758L199.047 212.431L197.637 209.531L159.93 227.858Z" fill="black"/>
<path d="M173.316 158.333L134.696 177.105L136.55 180.919L175.17 162.147L173.316 158.333Z" fill="white"/>
<path d="M136.551 181.425C136.495 181.425 136.438 181.415 136.385 181.397C136.322 181.376 136.263 181.342 136.213 181.297C136.163 181.253 136.123 181.199 136.094 181.139L134.24 177.325C134.181 177.204 134.173 177.065 134.217 176.937C134.261 176.81 134.354 176.706 134.475 176.647L173.094 157.877C173.154 157.848 173.219 157.83 173.285 157.826C173.352 157.822 173.419 157.831 173.482 157.853C173.545 157.875 173.603 157.909 173.653 157.953C173.702 157.997 173.743 158.051 173.772 158.111L175.626 161.925C175.656 161.985 175.673 162.05 175.677 162.117C175.681 162.183 175.672 162.25 175.65 162.313C175.606 162.44 175.513 162.545 175.392 162.604L136.772 181.375C136.703 181.409 136.628 181.425 136.551 181.425ZM135.375 177.339L136.785 180.239L174.489 161.912L173.079 159.012L135.375 177.339Z" fill="black"/>
</g>
<mask id="mask3_0_1" style="mask-type:luminance" maskUnits="userSpaceOnUse" x="504" y="115" width="73" height="67">
<path d="M576.665 115.339H504.755V181.334H576.665V115.339Z" fill="white"/>
</mask>
<g mask="url(#mask3_0_1)">
<path d="M520.355 161.597C520.355 161.597 508.965 159.031 506.234 158.084C505.023 161.453 504.871 163.821 506.171 166.573C507.221 168.793 508.985 169.892 511.477 170.511C518.652 172.296 520.359 161.601 520.359 161.601" fill="#0086D5"/>
<path d="M513.037 171.216C512.468 171.213 511.901 171.14 511.35 170.999C508.49 170.288 506.75 168.988 505.708 166.787C504.423 164.068 504.436 161.58 505.755 157.912C505.8 157.786 505.893 157.683 506.014 157.625C506.134 157.568 506.273 157.56 506.399 157.604C509.071 158.53 520.352 161.075 520.465 161.104C520.591 161.132 520.702 161.208 520.774 161.315C520.847 161.422 520.875 161.552 520.855 161.68C520.815 161.932 519.829 167.872 516.229 170.254C515.285 170.887 514.172 171.224 513.035 171.219M506.547 158.719C505.48 161.884 505.51 163.99 506.625 166.352C507.536 168.279 509.025 169.374 511.595 170.014C512.278 170.211 512.995 170.258 513.697 170.153C514.4 170.048 515.072 169.793 515.667 169.405C518.351 167.632 519.458 163.395 519.762 161.982C517.662 161.507 509.517 159.641 506.549 158.72" fill="black"/>
<path d="M565.033 170.508C563.843 174.399 561.217 177.691 557.688 179.717C555.094 181.191 552.737 181.056 548.998 180.126C537.222 177.197 519.036 172.394 510.465 170.261C513.98 170.946 517.806 171.585 520.248 161.996C524.727 144.431 531.892 115.847 531.892 115.847L576.156 126.855C576.156 126.855 566.107 166.978 565.033 170.508Z" fill="white"/>
<path d="M553.533 181.334C551.959 181.283 550.397 181.043 548.881 180.619C542.524 179.038 534.134 176.868 526.731 174.953C520.331 173.298 514.292 171.735 510.348 170.753C510.221 170.719 510.113 170.638 510.044 170.526C509.976 170.414 509.954 170.28 509.983 170.152C510.011 170.024 510.088 169.912 510.197 169.839C510.306 169.766 510.439 169.739 510.568 169.762C513.933 170.417 517.413 171.097 519.768 161.87C524.185 144.506 531.329 116.009 531.4 115.723C531.416 115.658 531.445 115.597 531.485 115.543C531.524 115.489 531.574 115.443 531.632 115.409C531.689 115.375 531.753 115.352 531.819 115.342C531.886 115.333 531.953 115.336 532.018 115.353L576.28 126.364C576.345 126.38 576.406 126.409 576.46 126.448C576.513 126.488 576.559 126.538 576.593 126.595C576.627 126.652 576.65 126.716 576.66 126.782C576.67 126.848 576.666 126.915 576.65 126.98C576.24 128.618 566.586 167.152 565.525 170.654C564.295 174.668 561.586 178.064 557.945 180.154C556.608 180.938 555.083 181.344 553.533 181.33M514.984 170.878C518.457 171.764 522.639 172.845 526.984 173.969C534.384 175.884 542.773 178.053 549.125 179.633C552.67 180.516 554.93 180.702 557.443 179.276C560.858 177.314 563.4 174.127 564.553 170.361C565.543 167.094 574.386 131.838 575.541 127.227L532.262 116.461C531.293 120.327 524.849 146.013 520.746 162.121C519.246 168.027 517.152 170.215 514.984 170.877" fill="black"/>
<path d="M546.331 128.338C546.317 128.338 546.303 128.336 546.29 128.333L537.762 126.212C537.719 126.201 537.681 126.173 537.658 126.134C537.635 126.096 537.629 126.05 537.64 126.006C537.651 125.963 537.678 125.925 537.717 125.903C537.755 125.88 537.802 125.873 537.845 125.884L546.373 128.005C546.413 128.015 546.448 128.039 546.471 128.073C546.495 128.107 546.505 128.149 546.5 128.189C546.495 128.23 546.475 128.268 546.444 128.295C546.413 128.323 546.372 128.338 546.331 128.338Z" fill="black"/>
<path d="M549.169 131.85C549.155 131.85 549.141 131.848 549.128 131.845L537.09 128.85C537.068 128.845 537.048 128.835 537.03 128.822C537.013 128.809 536.997 128.792 536.986 128.773C536.975 128.754 536.967 128.733 536.964 128.711C536.961 128.689 536.962 128.666 536.967 128.645C536.972 128.623 536.982 128.603 536.995 128.585C537.008 128.567 537.025 128.552 537.044 128.541C537.063 128.53 537.084 128.522 537.106 128.519C537.128 128.515 537.15 128.517 537.172 128.522L549.21 131.516C549.25 131.526 549.285 131.55 549.308 131.584C549.332 131.618 549.342 131.66 549.337 131.701C549.332 131.742 549.312 131.779 549.281 131.807C549.25 131.834 549.21 131.85 549.169 131.85Z" fill="black"/>
<path d="M563.752 147.888C563.738 147.888 563.724 147.886 563.711 147.883L541.125 142.269C541.084 142.255 541.05 142.227 541.029 142.189C541.009 142.152 541.003 142.108 541.013 142.066C541.024 142.025 541.049 141.988 541.085 141.965C541.121 141.942 541.165 141.933 541.207 141.94L563.794 147.558C563.834 147.568 563.869 147.592 563.892 147.626C563.916 147.66 563.926 147.702 563.921 147.742C563.916 147.783 563.896 147.821 563.865 147.848C563.834 147.876 563.794 147.891 563.753 147.891" fill="black"/>
<path d="M561.556 156.513C561.542 156.513 561.528 156.511 561.515 156.508L538.929 150.89C538.888 150.876 538.854 150.848 538.833 150.81C538.813 150.773 538.807 150.729 538.817 150.687C538.828 150.646 538.853 150.609 538.889 150.586C538.925 150.563 538.969 150.554 539.011 150.561L561.598 156.18C561.638 156.19 561.673 156.214 561.696 156.248C561.72 156.282 561.73 156.323 561.725 156.364C561.72 156.405 561.7 156.443 561.669 156.47C561.638 156.498 561.597 156.513 561.556 156.513Z" fill="black"/>
<path d="M559.359 165.137C559.345 165.137 559.331 165.135 559.318 165.132L536.732 159.514C536.709 159.51 536.687 159.501 536.667 159.488C536.648 159.476 536.631 159.459 536.618 159.439C536.606 159.42 536.597 159.398 536.593 159.375C536.589 159.351 536.59 159.328 536.596 159.305C536.601 159.282 536.612 159.261 536.626 159.243C536.64 159.224 536.658 159.209 536.679 159.197C536.699 159.186 536.722 159.179 536.745 159.177C536.768 159.175 536.792 159.177 536.814 159.185L559.401 164.807C559.441 164.817 559.476 164.841 559.499 164.875C559.523 164.909 559.533 164.951 559.528 164.991C559.523 165.032 559.503 165.07 559.472 165.097C559.441 165.125 559.401 165.14 559.36 165.14" fill="black"/>
<path d="M533.909 140.292C533.983 140.012 534.164 139.773 534.413 139.626C534.662 139.479 534.959 139.436 535.24 139.506C535.379 139.539 535.51 139.6 535.625 139.684C535.74 139.769 535.838 139.875 535.911 139.997C535.985 140.119 536.034 140.255 536.056 140.396C536.077 140.537 536.07 140.681 536.035 140.82C535.961 141.1 535.78 141.339 535.531 141.487C535.282 141.634 534.985 141.677 534.704 141.607C534.565 141.573 534.435 141.512 534.319 141.428C534.204 141.343 534.107 141.237 534.033 141.115C533.959 140.993 533.91 140.857 533.889 140.716C533.868 140.575 533.874 140.43 533.909 140.292Z" fill="black"/>
<path d="M534.971 142.151C534.84 142.151 534.709 142.135 534.582 142.104C534.377 142.053 534.184 141.963 534.014 141.837C533.844 141.711 533.701 141.553 533.592 141.372C533.485 141.193 533.414 140.995 533.384 140.789C533.355 140.583 533.366 140.373 533.418 140.172C533.498 139.866 533.667 139.59 533.903 139.379C534.139 139.168 534.432 139.032 534.745 138.987C535.058 138.942 535.378 138.99 535.664 139.126C535.95 139.261 536.189 139.479 536.352 139.75C536.459 139.928 536.53 140.126 536.56 140.332C536.59 140.538 536.579 140.748 536.527 140.95C536.438 141.294 536.237 141.599 535.955 141.817C535.673 142.034 535.327 142.152 534.971 142.151ZM534.971 139.984C534.841 139.983 534.715 140.025 534.611 140.104C534.508 140.183 534.434 140.294 534.401 140.42C534.383 140.492 534.379 140.567 534.39 140.641C534.401 140.714 534.427 140.785 534.465 140.849C534.505 140.915 534.557 140.973 534.619 141.019C534.681 141.065 534.752 141.098 534.827 141.116C534.977 141.155 535.137 141.133 535.271 141.054C535.405 140.976 535.503 140.848 535.543 140.698C535.561 140.626 535.565 140.551 535.554 140.477C535.544 140.403 535.518 140.333 535.48 140.269C535.44 140.202 535.388 140.145 535.325 140.099C535.263 140.053 535.192 140.02 535.117 140.002C535.069 139.99 535.02 139.984 534.971 139.984Z" fill="black"/>
<path d="M531.712 148.921C531.786 148.641 531.967 148.402 532.216 148.255C532.465 148.108 532.762 148.064 533.043 148.135C533.182 148.168 533.313 148.229 533.428 148.313C533.543 148.397 533.641 148.504 533.715 148.626C533.789 148.748 533.838 148.884 533.859 149.025C533.88 149.166 533.873 149.31 533.838 149.449C533.764 149.729 533.583 149.968 533.334 150.115C533.086 150.263 532.789 150.306 532.508 150.236C532.369 150.203 532.237 150.142 532.122 150.058C532.006 149.974 531.908 149.867 531.834 149.745C531.759 149.623 531.71 149.487 531.688 149.346C531.667 149.204 531.673 149.06 531.708 148.921" fill="black"/>
<path d="M532.78 150.775C532.649 150.775 532.518 150.759 532.391 150.728C532.186 150.677 531.993 150.587 531.823 150.461C531.653 150.335 531.51 150.177 531.401 149.996C531.294 149.817 531.223 149.619 531.193 149.413C531.164 149.207 531.175 148.997 531.227 148.796C531.307 148.49 531.476 148.214 531.712 148.003C531.948 147.792 532.241 147.656 532.554 147.611C532.867 147.566 533.187 147.614 533.473 147.75C533.759 147.885 533.998 148.103 534.161 148.374C534.268 148.552 534.339 148.75 534.369 148.956C534.399 149.162 534.388 149.372 534.336 149.574C534.247 149.918 534.046 150.224 533.764 150.441C533.482 150.658 533.136 150.776 532.78 150.775ZM532.78 148.608C532.65 148.607 532.524 148.649 532.42 148.728C532.317 148.807 532.243 148.918 532.21 149.044C532.192 149.116 532.188 149.191 532.199 149.265C532.21 149.338 532.236 149.409 532.274 149.473C532.314 149.539 532.366 149.597 532.428 149.643C532.49 149.689 532.561 149.722 532.636 149.74C532.786 149.779 532.946 149.757 533.08 149.679C533.214 149.6 533.312 149.472 533.352 149.322C533.37 149.25 533.374 149.175 533.363 149.101C533.353 149.027 533.327 148.957 533.289 148.893C533.236 148.806 533.161 148.733 533.072 148.683C532.983 148.633 532.882 148.607 532.78 148.608Z" fill="black"/>
<path d="M529.548 157.421C529.622 157.141 529.803 156.902 530.052 156.755C530.301 156.608 530.598 156.564 530.879 156.635C531.018 156.668 531.149 156.729 531.264 156.813C531.379 156.897 531.477 157.004 531.551 157.126C531.625 157.248 531.674 157.384 531.695 157.525C531.716 157.666 531.709 157.81 531.674 157.949C531.6 158.228 531.42 158.468 531.171 158.615C530.922 158.762 530.626 158.806 530.345 158.736C530.206 158.703 530.075 158.642 529.959 158.558C529.843 158.474 529.745 158.367 529.671 158.245C529.596 158.123 529.547 157.987 529.525 157.846C529.504 157.704 529.51 157.56 529.545 157.421" fill="black"/>
<path d="M530.612 159.275C530.481 159.275 530.35 159.259 530.223 159.228C530.018 159.178 529.825 159.087 529.655 158.961C529.485 158.836 529.342 158.677 529.234 158.496C529.127 158.317 529.056 158.119 529.026 157.913C528.996 157.707 529.007 157.497 529.059 157.296C529.139 156.99 529.308 156.714 529.544 156.503C529.78 156.292 530.073 156.156 530.386 156.111C530.699 156.066 531.019 156.114 531.305 156.25C531.59 156.385 531.83 156.603 531.993 156.874C532.1 157.052 532.171 157.25 532.201 157.456C532.231 157.662 532.22 157.872 532.168 158.074C532.079 158.418 531.878 158.724 531.596 158.941C531.314 159.158 530.968 159.275 530.612 159.274M530.612 157.107C530.482 157.106 530.355 157.149 530.252 157.228C530.149 157.307 530.075 157.418 530.042 157.544C530.024 157.616 530.02 157.691 530.031 157.765C530.042 157.838 530.068 157.909 530.106 157.973C530.166 158.072 530.254 158.152 530.358 158.202C530.463 158.252 530.58 158.27 530.695 158.254C530.81 158.238 530.918 158.188 531.005 158.112C531.092 158.035 531.155 157.934 531.185 157.822C531.203 157.75 531.207 157.675 531.196 157.601C531.186 157.527 531.16 157.457 531.122 157.393C531.068 157.306 530.993 157.235 530.904 157.186C530.814 157.136 530.714 157.111 530.612 157.111" fill="black"/>
</g>
<mask id="mask4_0_1" style="mask-type:luminance" maskUnits="userSpaceOnUse" x="223" y="65" width="33" height="36">
<path d="M255.351 65.7588H223.992V100.634H255.351V65.7588Z" fill="white"/>
</mask>
<g mask="url(#mask4_0_1)">
<path d="M249.034 100.634C248.52 100.629 248.013 100.521 247.542 100.314C247.071 100.108 246.648 99.8086 246.296 99.4338L225.243 77.3788C224.824 76.9446 224.498 76.4304 224.283 75.8669C224.068 75.3035 223.969 74.7024 223.992 74.0998C224.013 73.556 224.145 73.0222 224.38 72.5314C224.614 72.0405 224.947 71.603 225.358 71.2458L230.554 66.7278C230.961 66.3765 231.435 66.1109 231.947 65.9468C232.459 65.7827 232.999 65.7235 233.534 65.7728C234.127 65.8279 234.702 66.0006 235.227 66.2808C235.752 66.561 236.216 66.9431 236.592 67.4048L255.235 90.1528C255.282 90.2037 255.317 90.2636 255.34 90.3287C255.362 90.3939 255.372 90.4629 255.367 90.5317C255.362 90.6005 255.343 90.6676 255.311 90.7288C255.28 90.7901 255.236 90.8443 255.182 90.888C255.129 90.9318 255.067 90.9643 255.001 90.9834C254.935 91.0026 254.866 91.0081 254.797 90.9996C254.729 90.991 254.663 90.9687 254.603 90.9338C254.544 90.8989 254.492 90.8523 254.451 90.7968L235.809 68.0478C235.519 67.6909 235.161 67.3954 234.756 67.1785C234.35 66.9617 233.906 66.8278 233.448 66.7848C233.048 66.7462 232.644 66.7891 232.261 66.9109C231.878 67.0328 231.524 67.2311 231.22 67.4938L226.02 72.0118C225.715 72.28 225.468 72.6078 225.295 72.9749C225.121 73.3421 225.025 73.7409 225.011 74.1468C224.993 74.6121 225.07 75.0761 225.236 75.511C225.402 75.9459 225.655 76.3428 225.978 76.6778L247.03 98.7308C247.482 99.2445 248.118 99.5593 248.801 99.607C249.483 99.6548 250.157 99.4316 250.676 98.9858L252.741 97.1008C253.228 96.6181 253.509 95.9651 253.525 95.2793C253.541 94.5935 253.29 93.9283 252.825 93.4238L236.992 75.2078C236.503 74.6066 235.796 74.2235 235.025 74.1419C234.255 74.0604 233.483 74.2872 232.879 74.7728C232.601 75.0167 232.375 75.315 232.217 75.6493C232.058 75.9837 231.97 76.347 231.957 76.7168C231.942 77.1411 232.012 77.564 232.164 77.9603C232.317 78.3566 232.548 78.718 232.843 79.0228L247.001 93.8088C247.053 93.8557 247.094 93.9128 247.122 93.9763C247.151 94.0399 247.166 94.1087 247.167 94.1784C247.168 94.248 247.154 94.3171 247.127 94.3814C247.1 94.4456 247.06 94.5036 247.01 94.5517C246.959 94.5998 246.9 94.637 246.834 94.6611C246.769 94.6851 246.699 94.6955 246.63 94.6914C246.56 94.6874 246.492 94.6691 246.43 94.6377C246.368 94.6063 246.313 94.5624 246.268 94.5088L232.104 79.7258C231.714 79.3212 231.41 78.8421 231.21 78.3172C231.01 77.7922 230.918 77.2322 230.939 76.6708C230.957 76.1637 231.08 75.6657 231.298 75.2077C231.516 74.7496 231.826 74.3413 232.209 74.0078C233.016 73.3451 234.053 73.0294 235.093 73.1296C236.132 73.2299 237.089 73.7381 237.755 74.5428L253.592 92.7588C254.229 93.4642 254.568 94.3892 254.537 95.3393C254.506 96.2894 254.108 97.1904 253.426 97.8528L251.359 99.7378C250.724 100.319 249.894 100.641 249.033 100.638" fill="black"/>
</g>
<mask id="mask5_0_1" style="mask-type:luminance" maskUnits="userSpaceOnUse" x="291" y="-22" width="36" height="64">
<path d="M326.367 -21.4641H291.372V41.1529H326.367V-21.4641Z" fill="white"/>
</mask>
<g mask="url(#mask5_0_1)">
<mask id="mask6_0_1" style="mask-type:luminance" maskUnits="userSpaceOnUse" x="291" y="-22" width="36" height="64">
<path d="M326.367 -21.4641H291.372V41.1529H326.367V-21.4641Z" fill="white"/>
</mask>
<g mask="url(#mask6_0_1)">
<g style="mix-blend-mode:multiply">
<path d="M308.324 31.3049C308.324 31.3049 303.032 36.5969 307.362 39.0049C311.692 41.4129 319.389 35.1559 316.021 32.2699C312.653 29.3839 308.321 31.3079 308.321 31.3079" fill="#0086D5"/>
<path d="M308.324 31.3049C308.324 31.3049 303.032 36.5969 307.362 39.0049C311.692 41.4129 319.389 35.1559 316.021 32.2699C312.653 29.3839 308.324 31.3049 308.324 31.3049Z" stroke="#0086D5" stroke-width="0.874" stroke-miterlimit="10"/>
</g>
<g style="mix-blend-mode:multiply">
<mask id="mask7_0_1" style="mask-type:luminance" maskUnits="userSpaceOnUse" x="291" y="-22" width="35" height="49">
<path d="M325.998 -21.4641H291.372V26.5199H325.998V-21.4641Z" fill="white"/>
</mask>
<g mask="url(#mask7_0_1)">
<path d="M294.072 -7.95407C293.839 -9.32907 292.889 -10.4371 293.307 -11.8711C293.804 -13.1645 294.501 -14.3719 295.372 -15.4491C296.148 -16.3225 297.097 -17.0259 298.158 -17.5151C299.196 -18.2251 300.326 -18.7926 301.515 -19.2021C304.688 -20.0006 307.975 -20.2432 311.231 -19.9191C312.892 -19.8031 313.905 -18.9521 315.252 -18.2081C316.493 -17.6845 317.673 -17.0273 318.772 -16.2481C320.807 -14.3886 322.433 -12.1255 323.545 -9.60307C324.564 -7.21006 324.63 -4.51849 323.731 -2.07807C323.344 -0.922113 322.798 0.174395 322.109 1.17993C321.773 1.67021 321.363 2.10624 320.895 2.47293C320.267 2.83056 319.621 3.15533 318.96 3.44593C317.925 4.12153 316.973 4.91705 316.125 5.81593C315.309 6.62933 314.674 7.60645 314.263 8.68293C313.339 11.0199 313.363 13.5829 313.246 16.0239C313.163 17.6969 313.076 19.3689 312.996 21.0419C312.933 22.3689 313.256 23.8089 312.749 25.0849L313.333 24.5689C312.263 24.7028 311.178 24.6749 310.116 24.4859C309.209 24.4201 308.3 24.401 307.391 24.4289C306.934 24.4446 306.476 24.4232 306.022 24.3649C305.499 24.2809 305.488 24.1329 305.533 23.6839C305.64 22.6109 305.133 21.6349 305.133 20.5699C305.133 19.3079 305.38 18.0559 305.339 16.7929C305.16 15.6115 305.044 14.4216 304.991 13.2279C305.079 12.6994 305.112 12.1633 305.091 11.6279C305.015 11.0279 304.733 10.4649 304.666 9.86293C304.548 8.79293 305.16 8.14393 306.019 7.47993C306.819 6.85993 307.619 6.24093 308.419 5.61393C309.311 4.91393 310.338 4.35393 311.234 3.65393C312.95 2.22912 314.055 0.200556 314.32 -2.01407C314.46 -3.15507 314.43 -4.31407 314.507 -5.46407C314.657 -6.55225 314.526 -7.66072 314.127 -8.68407C313.427 -10.1541 311.778 -10.9031 310.101 -11.2451C309.068 -11.4397 308.022 -11.5623 306.972 -11.6121C305.862 -11.7403 304.741 -11.7403 303.631 -11.6121C302.505 -11.3932 301.487 -10.7988 300.743 -9.92607C300.364 -9.52291 300.097 -9.02797 299.968 -8.49007C299.839 -7.85507 300.068 -7.20707 299.822 -6.59007L300.627 -7.13207C299.794 -7.08407 298.99 -7.20507 298.152 -7.09907C297.348 -6.98471 296.539 -6.91493 295.728 -6.89007C295.129 -6.82055 294.524 -6.83198 293.928 -6.92407C293.294 -7.10307 293.186 -7.88107 293.101 -8.39307C292.604 -11.3641 294.802 -14.0641 297.272 -15.8261C297.863 -16.2471 298.48 -16.6421 299.057 -17.0781C299.665 -17.5361 300.147 -18.1091 300.757 -18.5651C301.991 -19.4901 303.9 -19.6251 305.457 -19.7201C307.043 -19.8179 308.634 -19.6852 310.182 -19.3261C311.729 -18.9125 313.24 -18.3747 314.701 -17.7181C315.401 -17.4351 316.155 -17.2831 316.848 -16.9951C317.538 -16.6597 318.17 -16.2172 318.722 -15.6841C319.949 -14.8447 321.067 -13.855 322.048 -12.7381C323.682 -10.1935 324.455 -7.19128 324.253 -4.17407C324.183 -2.72907 324.453 -1.18907 323.282 -0.0510731C322.246 0.98896 321.132 1.9481 319.95 2.81793C318.64 3.75093 317.237 4.55693 315.869 5.41793C315.219 5.82793 314.614 6.27193 313.918 6.61793C313.266 6.89996 312.659 7.27706 312.118 7.73693C311.248 8.67986 310.71 9.88165 310.586 11.1589C310.37 12.5321 310.285 13.9227 310.333 15.3119C310.388 17.0169 310.915 18.6509 311.017 20.3429C311.037 22.1665 310.954 23.9898 310.767 25.8039H312.438C312.589 22.7606 312.741 19.7173 312.892 16.6739C312.962 15.2739 313.085 13.8609 313.102 12.4569C313.11 11.7769 312.736 10.5879 313.202 10.0049L312.259 10.3439C312.802 10.4837 313.375 10.4493 313.897 10.2456C314.419 10.0419 314.863 9.67925 315.168 9.20893C315.596 8.34793 314.157 7.59493 313.725 8.46393C313.631 8.64414 313.479 8.78729 313.294 8.87009C313.108 8.95288 312.9 8.97045 312.703 8.91993C312.53 8.88051 312.349 8.89148 312.182 8.95156C312.015 9.01163 311.868 9.11829 311.76 9.25893C311.16 10.0049 311.378 11.1239 311.421 11.9739C311.489 13.3339 311.321 14.7239 311.252 16.0829C311.091 19.3223 310.93 22.5619 310.769 25.8019C310.722 26.7529 312.388 26.7489 312.44 25.8019C312.534 24.0739 312.774 22.3449 312.703 20.6119C312.634 18.9119 312.096 17.2779 312.017 15.5779C311.939 14.167 312.011 12.7518 312.231 11.3559C312.268 10.7093 312.465 10.0819 312.804 9.52983C313.142 8.97774 313.612 8.5181 314.172 8.19193C315.711 7.37793 317.16 6.44393 318.629 5.53093C320.121 4.64448 321.535 3.63319 322.856 2.50793C323.866 1.60793 325.211 0.581926 325.646 -0.664074C325.828 -1.39501 325.904 -2.1485 325.87 -2.90107C325.908 -3.78907 325.985 -4.68307 325.955 -5.57207C325.887 -7.17801 325.569 -8.76359 325.014 -10.2721C324.555 -11.7959 323.773 -13.2026 322.72 -14.3961C322.154 -14.9416 321.553 -15.4487 320.92 -15.9141C320.252 -16.4341 319.639 -17.0141 318.958 -17.5141C318.351 -17.9618 317.676 -18.3085 316.958 -18.5411C316.038 -18.8501 315.166 -19.1761 314.275 -19.5471C311.105 -20.9239 307.632 -21.4516 304.196 -21.0781C302.592 -21.022 301.031 -20.5417 299.672 -19.6861C299.027 -19.2061 298.512 -18.6071 297.872 -18.1221C297.189 -17.6051 296.453 -17.1431 295.761 -16.6351C292.843 -14.4911 290.698 -11.0431 291.572 -7.61607C291.702 -6.90822 292.095 -6.27571 292.672 -5.84507C293.288 -5.50849 293.988 -5.35545 294.688 -5.40407C295.566 -5.3784 296.445 -5.41181 297.319 -5.50407C297.819 -5.56507 298.31 -5.66807 298.811 -5.70407C299.421 -5.74407 300.02 -5.63207 300.63 -5.66707C300.803 -5.66629 300.972 -5.71755 301.116 -5.8142C301.259 -5.91085 301.371 -6.04843 301.435 -6.20907C301.59 -6.77389 301.642 -7.36185 301.589 -7.94507C301.624 -8.24946 301.723 -8.54278 301.882 -8.80495C302.04 -9.06713 302.254 -9.29197 302.507 -9.46407C302.987 -9.80195 303.53 -10.0409 304.103 -10.1671C304.677 -10.2933 305.269 -10.3042 305.847 -10.1991C307.747 -10.0991 310.147 -10.1241 311.747 -9.06407C312.151 -8.76153 312.469 -8.35768 312.667 -7.89329C312.866 -7.42889 312.938 -6.92039 312.877 -6.41907C312.877 -5.09507 312.797 -3.73007 312.689 -2.40907C312.543 -1.11503 312.092 0.125799 311.372 1.21093C310.575 2.23544 309.578 3.08762 308.442 3.71593C307.43 4.39093 306.555 5.18693 305.577 5.89493C304.666 6.44316 303.892 7.1922 303.315 8.08493C302.71 9.25493 303.13 10.3939 303.4 11.5759C303.453 12.169 303.425 12.7664 303.317 13.3519C303.341 14.0631 303.423 14.7711 303.562 15.4689C303.682 16.8419 303.665 18.2234 303.511 19.5929C303.447 20.203 303.453 20.8183 303.53 21.4269C303.714 22.0472 303.841 22.6833 303.908 23.3269C303.88 24.2879 303.802 25.1419 304.958 25.6159C305.961 25.9099 307.011 26.0047 308.05 25.8949C309.158 25.9015 310.265 25.9639 311.367 26.0819C312.335 26.1579 313.984 26.3709 314.402 25.3819C314.717 24.3057 314.803 23.1754 314.654 22.0639C314.622 20.7219 314.754 19.3709 314.821 18.0299C314.823 15.6536 314.998 13.2806 315.346 10.9299C315.531 9.86241 315.912 8.83862 316.472 7.91093C317.173 6.95251 318.007 6.09864 318.949 5.37493C319.909 4.54593 321.192 4.23993 322.17 3.44893C323.043 2.70154 323.76 1.7895 324.28 0.764927C325.477 -1.32878 326.066 -3.71495 325.98 -6.12507C325.797 -8.59566 324.96 -10.9732 323.556 -13.0141C322.797 -14.1203 321.958 -15.1704 321.048 -16.1561C320.231 -17.128 319.227 -17.9267 318.097 -18.5051C316.886 -19.1171 315.737 -19.7301 314.577 -20.4161C313.378 -21.0855 312.026 -21.4321 310.653 -21.4221C307.527 -21.6333 304.387 -21.3897 301.331 -20.6991C300.138 -20.3562 299 -19.8454 297.951 -19.1821C296.979 -18.5941 295.921 -18.0471 295.021 -17.3751C294.152 -16.6016 293.418 -15.6892 292.849 -14.6751C292.106 -13.6488 291.641 -12.4474 291.5 -11.1881C291.421 -9.89507 292.252 -8.80607 292.463 -7.56107C292.622 -6.62507 294.232 -7.02307 294.074 -7.95407" fill="black"/>
</g>
</g>
<g style="mix-blend-mode:multiply">
<mask id="mask8_0_1" style="mask-type:luminance" maskUnits="userSpaceOnUse" x="292" y="-12" width="23" height="39">
<path d="M314.389 -11.6621H292.468V26.5209H314.389V-11.6621Z" fill="white"/>
</mask>
<g mask="url(#mask8_0_1)">
<path d="M293.028 -6.68012C294.238 -6.28765 295.474 -5.98418 296.728 -5.77212C297.826 -5.46375 298.962 -5.31323 300.103 -5.32512C300.276 -5.3262 300.444 -5.37821 300.587 -5.47463C300.731 -5.57104 300.842 -5.70757 300.908 -5.86712C301.298 -6.74212 301.099 -7.73912 301.657 -8.55612C302.134 -9.26845 302.863 -9.77421 303.697 -9.97212C304.875 -10.1978 306.078 -10.2567 307.272 -10.1471C308.214 -10.2024 309.157 -10.0792 310.053 -9.78412C310.85 -9.49925 311.532 -8.96203 311.995 -8.25412C312.285 -7.38041 312.461 -6.47291 312.519 -5.55412C312.94 -3.62756 312.632 -1.6132 311.653 0.0988836C310.401 1.92712 308.818 3.5041 306.984 4.74788C305.474 5.93288 303.775 6.70088 303.513 8.63788C303.376 9.65588 303.495 10.6809 303.46 11.7019C303.42 12.8589 303.345 14.0159 303.287 15.1729C303.175 17.4299 302.787 19.6789 302.738 21.9349C302.707 23.3819 302.686 25.6539 304.527 26.3029C306.616 27.0399 308.785 25.6449 310.9 25.9359C311.952 26.0799 312.405 24.6579 311.344 24.5129C310.311 24.4064 309.268 24.4641 308.253 24.6839C307.316 24.9558 306.338 25.0608 305.365 24.9939C304.65 24.8529 304.57 24.1679 304.489 23.6159C304.361 22.477 304.374 21.3267 304.526 20.1909C304.762 17.8409 304.94 15.5069 305.058 13.1489C305.114 12.0239 305.115 10.9109 305.116 9.78588C305.048 9.27966 305.121 8.76451 305.328 8.29725C305.534 7.83 305.865 7.42879 306.285 7.13788C309.775 4.61988 313.634 1.89588 314.297 -2.31912C314.428 -3.32447 314.404 -4.34403 314.226 -5.34212C314.118 -6.29559 313.961 -7.24284 313.755 -8.18012C313.451 -8.98112 312.95 -9.69311 312.3 -10.251C311.65 -10.809 310.87 -11.1951 310.032 -11.3741C308.769 -11.6182 307.483 -11.7135 306.198 -11.6581C304.921 -11.7312 303.643 -11.551 302.436 -11.1281C301.602 -10.7728 300.88 -10.1994 300.345 -9.46812C299.561 -8.45812 299.78 -7.34112 299.297 -6.25712L300.102 -6.79912C299.01 -6.8007 297.923 -6.95142 296.871 -7.24712C295.717 -7.4434 294.58 -7.72927 293.471 -8.10212C293.376 -8.13905 293.274 -8.15599 293.171 -8.15189C293.069 -8.14779 292.969 -8.12274 292.877 -8.07828C292.785 -8.03383 292.703 -7.97092 292.636 -7.89346C292.569 -7.81601 292.519 -7.72565 292.488 -7.62799C292.458 -7.53033 292.448 -7.42745 292.459 -7.32573C292.47 -7.22401 292.501 -7.12562 292.552 -7.03666C292.602 -6.94769 292.671 -6.87006 292.752 -6.80855C292.834 -6.74705 292.928 -6.70299 293.027 -6.67912" fill="black"/>
</g>
</g>
<g style="mix-blend-mode:multiply">
<mask id="mask9_0_1" style="mask-type:luminance" maskUnits="userSpaceOnUse" x="301" y="28" width="15" height="14">
<path d="M315.506 28.9149H301.332V41.1529H315.506V28.9149Z" fill="white"/>
</mask>
<g mask="url(#mask9_0_1)">
<path d="M311.904 28.9509C309.866 28.8859 307.597 28.7909 305.837 29.8819C304.262 30.8579 304.217 32.372 303.737 33.864C303.237 35.432 301.843 36.9749 303.269 38.5159C304.596 39.8326 306.388 40.5737 308.257 40.579C309.271 40.4951 310.26 40.2238 311.175 39.7789C312.046 39.4502 312.89 39.0529 313.699 38.5909C314.303 38.1626 314.786 37.5856 315.101 36.9158C315.416 36.246 315.553 35.5062 315.499 34.7679C315.506 33.8539 315.289 32.9521 314.865 32.1421C314.442 31.332 313.826 30.6386 313.071 30.1229C312.343 29.6203 311.489 29.3324 310.606 29.2919C309.692 29.2071 308.772 29.191 307.855 29.2439C307.056 29.278 306.276 29.4918 305.571 29.8697C304.867 30.2475 304.257 30.7795 303.787 31.426C302.864 32.762 302.859 34.2899 302.692 35.7979C302.531 36.6359 302.651 37.5037 303.035 38.2659C303.575 39.0348 304.336 39.6217 305.217 39.9489C306.167 40.3152 307.171 40.5233 308.188 40.5649C309.254 40.753 310.352 40.6326 311.352 40.2179C312.049 39.7538 312.606 39.1083 312.963 38.351C313.44 37.7443 313.948 37.1628 314.485 36.609C314.889 35.9306 315.097 35.1534 315.085 34.364C315.145 33.9509 315.121 33.5301 315.014 33.1266C314.907 32.7231 314.72 32.3454 314.464 32.0159C313.871 31.2951 313.089 30.7533 312.206 30.4509C311.335 30.1929 310.433 30.0481 309.525 30.0199C307.599 29.8449 305.795 29.867 304.207 30.978C303.051 31.9251 302.213 33.2044 301.807 34.6429C301.425 35.2717 301.283 36.0176 301.407 36.743C301.758 37.6809 302.349 38.5104 303.121 39.1489C304.609 40.2874 306.422 40.9214 308.295 40.959C309.277 41.03 310.262 41.0809 311.245 41.1429C311.694 41.2119 312.152 41.1817 312.588 41.0543C313.024 40.9269 313.427 40.7055 313.768 40.4056C314.109 40.1058 314.38 39.7348 314.562 39.3188C314.744 38.9028 314.833 38.4519 314.822 37.9979C314.74 37.0569 313.069 37.0489 313.151 37.9979C313.165 38.305 313.099 38.6104 312.958 38.8838C312.818 39.1573 312.609 39.3893 312.351 39.5569C311.657 39.7383 310.929 39.7469 310.231 39.582C308.771 39.6087 307.314 39.4234 305.907 39.032C305.202 38.7764 304.559 38.3734 304.021 37.8499C303.76 37.5734 303.53 37.2689 303.335 36.9419C303.156 36.7269 303.032 36.4721 302.973 36.1989C303.023 35.9406 303.116 35.6926 303.25 35.4659C303.37 35.1729 303.478 34.8769 303.595 34.5829C303.789 34.0581 304.038 33.5553 304.338 33.0829C304.677 32.587 305.126 32.1768 305.651 31.885C306.176 31.5932 306.762 31.4278 307.362 31.4019C308.144 31.3885 308.925 31.4269 309.702 31.517C310.368 31.5357 311.028 31.6457 311.664 31.844C312.315 32.0736 312.873 32.5106 313.252 33.088C313.488 33.6632 313.523 34.3012 313.352 34.8989C313.337 35.1435 313.274 35.3827 313.167 35.6029C313.06 35.8231 312.91 36.0199 312.726 36.1819C312.225 36.637 311.793 37.1621 311.442 37.741C311.149 38.236 310.87 38.8539 310.236 39.0669C309.405 39.224 308.552 39.2206 307.722 39.0569C306.461 38.9229 304.56 38.382 304.332 37.088C304.276 36.4233 304.313 35.754 304.444 35.0999C304.47 34.5396 304.54 33.9822 304.654 33.433C304.78 32.9034 305.025 32.4098 305.372 31.9904C305.719 31.571 306.158 31.2369 306.654 31.0139C307.225 30.7888 307.836 30.6866 308.449 30.7139C309.183 30.7269 309.949 30.702 310.68 30.784C311.335 30.9049 311.948 31.1942 312.457 31.6233C312.967 32.0525 313.356 32.6069 313.587 33.232C313.794 33.7766 313.89 34.3571 313.87 34.9393C313.85 35.5216 313.713 36.094 313.469 36.6229C313.183 37.0942 312.754 37.4607 312.243 37.668C311.532 38.003 310.796 38.3209 310.069 38.6259C309.381 38.9499 308.629 39.116 307.869 39.112C307.176 39.0425 306.505 38.8318 305.896 38.493C305.326 38.2608 304.821 37.8928 304.426 37.4209C304.09 36.9039 304.442 36.221 304.678 35.721C305.005 35.1214 305.268 34.4889 305.462 33.834C305.571 33.2614 305.72 32.6973 305.909 32.146C306.4 30.909 307.972 30.493 309.329 30.405C310.186 30.35 311.049 30.3989 311.906 30.4269C312.009 30.4362 312.112 30.424 312.209 30.3911C312.307 30.3582 312.396 30.3054 312.472 30.236C312.548 30.1665 312.609 30.082 312.651 29.9879C312.692 29.8937 312.714 29.7919 312.714 29.689C312.714 29.586 312.692 29.4842 312.651 29.39C312.609 29.2959 312.548 29.2114 312.472 29.1419C312.396 29.0725 312.307 29.0197 312.209 28.9868C312.112 28.9539 312.009 28.9417 311.906 28.9509" fill="black"/>
</g>
</g>
</g>
</g>
</g>
</g>
<defs>
<clipPath id="clip0_0_1">
<rect width="1366" height="5255" fill="white" transform="translate(-684 -3739)"/>
</clipPath>
</defs>
</svg>
